%TF.GenerationSoftware,KiCad,Pcbnew,4.0.4-stable*%
%TF.CreationDate,2016-10-13T01:22:44+03:00*%
%TF.ProjectId,CAN bus transceiver v2,43414E20627573207472616E73636569,rev?*%
%TF.FileFunction,Legend,Top*%
%FSLAX46Y46*%
G04 Gerber Fmt 4.6, Leading zero omitted, Abs format (unit mm)*
G04 Created by KiCad (PCBNEW 4.0.4-stable) date Thu Oct 13 01:22:44 2016*
%MOMM*%
%LPD*%
G01*
G04 APERTURE LIST*
%ADD10C,0.100000*%
%ADD11C,0.125000*%
%ADD12C,0.187500*%
%ADD13C,0.150000*%
%ADD14R,1.750000X1.750000*%
%ADD15C,1.750000*%
%ADD16R,1.550000X0.600000*%
G04 APERTURE END LIST*
D10*
D11*
X154206288Y-102032571D02*
X154182478Y-102056381D01*
X154111050Y-102080190D01*
X154063431Y-102080190D01*
X153992002Y-102056381D01*
X153944383Y-102008762D01*
X153920574Y-101961143D01*
X153896764Y-101865905D01*
X153896764Y-101794476D01*
X153920574Y-101699238D01*
X153944383Y-101651619D01*
X153992002Y-101604000D01*
X154063431Y-101580190D01*
X154111050Y-101580190D01*
X154182478Y-101604000D01*
X154206288Y-101627810D01*
X154396764Y-101937333D02*
X154634859Y-101937333D01*
X154349145Y-102080190D02*
X154515812Y-101580190D01*
X154682478Y-102080190D01*
X154849145Y-102080190D02*
X154849145Y-101580190D01*
X155134859Y-102080190D01*
X155134859Y-101580190D01*
X155753907Y-102080190D02*
X155753907Y-101580190D01*
X155753907Y-101770667D02*
X155801526Y-101746857D01*
X155896764Y-101746857D01*
X155944383Y-101770667D01*
X155968192Y-101794476D01*
X155992002Y-101842095D01*
X155992002Y-101984952D01*
X155968192Y-102032571D01*
X155944383Y-102056381D01*
X155896764Y-102080190D01*
X155801526Y-102080190D01*
X155753907Y-102056381D01*
X156420573Y-101746857D02*
X156420573Y-102080190D01*
X156206288Y-101746857D02*
X156206288Y-102008762D01*
X156230097Y-102056381D01*
X156277716Y-102080190D01*
X156349145Y-102080190D01*
X156396764Y-102056381D01*
X156420573Y-102032571D01*
X156634859Y-102056381D02*
X156682478Y-102080190D01*
X156777716Y-102080190D01*
X156825335Y-102056381D01*
X156849145Y-102008762D01*
X156849145Y-101984952D01*
X156825335Y-101937333D01*
X156777716Y-101913524D01*
X156706288Y-101913524D01*
X156658669Y-101889714D01*
X156634859Y-101842095D01*
X156634859Y-101818286D01*
X156658669Y-101770667D01*
X156706288Y-101746857D01*
X156777716Y-101746857D01*
X156825335Y-101770667D01*
X157372954Y-101746857D02*
X157563430Y-101746857D01*
X157444383Y-101580190D02*
X157444383Y-102008762D01*
X157468192Y-102056381D01*
X157515811Y-102080190D01*
X157563430Y-102080190D01*
X157730097Y-102080190D02*
X157730097Y-101746857D01*
X157730097Y-101842095D02*
X157753906Y-101794476D01*
X157777716Y-101770667D01*
X157825335Y-101746857D01*
X157872954Y-101746857D01*
X158253906Y-102080190D02*
X158253906Y-101818286D01*
X158230097Y-101770667D01*
X158182478Y-101746857D01*
X158087240Y-101746857D01*
X158039621Y-101770667D01*
X158253906Y-102056381D02*
X158206287Y-102080190D01*
X158087240Y-102080190D01*
X158039621Y-102056381D01*
X158015811Y-102008762D01*
X158015811Y-101961143D01*
X158039621Y-101913524D01*
X158087240Y-101889714D01*
X158206287Y-101889714D01*
X158253906Y-101865905D01*
X158492002Y-101746857D02*
X158492002Y-102080190D01*
X158492002Y-101794476D02*
X158515811Y-101770667D01*
X158563430Y-101746857D01*
X158634859Y-101746857D01*
X158682478Y-101770667D01*
X158706287Y-101818286D01*
X158706287Y-102080190D01*
X158920573Y-102056381D02*
X158968192Y-102080190D01*
X159063430Y-102080190D01*
X159111049Y-102056381D01*
X159134859Y-102008762D01*
X159134859Y-101984952D01*
X159111049Y-101937333D01*
X159063430Y-101913524D01*
X158992002Y-101913524D01*
X158944383Y-101889714D01*
X158920573Y-101842095D01*
X158920573Y-101818286D01*
X158944383Y-101770667D01*
X158992002Y-101746857D01*
X159063430Y-101746857D01*
X159111049Y-101770667D01*
X159563430Y-102056381D02*
X159515811Y-102080190D01*
X159420573Y-102080190D01*
X159372954Y-102056381D01*
X159349145Y-102032571D01*
X159325335Y-101984952D01*
X159325335Y-101842095D01*
X159349145Y-101794476D01*
X159372954Y-101770667D01*
X159420573Y-101746857D01*
X159515811Y-101746857D01*
X159563430Y-101770667D01*
X159968192Y-102056381D02*
X159920573Y-102080190D01*
X159825335Y-102080190D01*
X159777716Y-102056381D01*
X159753906Y-102008762D01*
X159753906Y-101818286D01*
X159777716Y-101770667D01*
X159825335Y-101746857D01*
X159920573Y-101746857D01*
X159968192Y-101770667D01*
X159992001Y-101818286D01*
X159992001Y-101865905D01*
X159753906Y-101913524D01*
X160206287Y-102080190D02*
X160206287Y-101746857D01*
X160206287Y-101580190D02*
X160182477Y-101604000D01*
X160206287Y-101627810D01*
X160230096Y-101604000D01*
X160206287Y-101580190D01*
X160206287Y-101627810D01*
X160396763Y-101746857D02*
X160515810Y-102080190D01*
X160634858Y-101746857D01*
X161015810Y-102056381D02*
X160968191Y-102080190D01*
X160872953Y-102080190D01*
X160825334Y-102056381D01*
X160801524Y-102008762D01*
X160801524Y-101818286D01*
X160825334Y-101770667D01*
X160872953Y-101746857D01*
X160968191Y-101746857D01*
X161015810Y-101770667D01*
X161039619Y-101818286D01*
X161039619Y-101865905D01*
X160801524Y-101913524D01*
X161253905Y-102080190D02*
X161253905Y-101746857D01*
X161253905Y-101842095D02*
X161277714Y-101794476D01*
X161301524Y-101770667D01*
X161349143Y-101746857D01*
X161396762Y-101746857D01*
X161896762Y-101746857D02*
X162015809Y-102080190D01*
X162134857Y-101746857D01*
X162301523Y-101627810D02*
X162325333Y-101604000D01*
X162372952Y-101580190D01*
X162491999Y-101580190D01*
X162539618Y-101604000D01*
X162563428Y-101627810D01*
X162587237Y-101675429D01*
X162587237Y-101723048D01*
X162563428Y-101794476D01*
X162277714Y-102080190D01*
X162587237Y-102080190D01*
D12*
X155138857Y-88913857D02*
X155103143Y-88949571D01*
X154996000Y-88985286D01*
X154924571Y-88985286D01*
X154817428Y-88949571D01*
X154746000Y-88878143D01*
X154710285Y-88806714D01*
X154674571Y-88663857D01*
X154674571Y-88556714D01*
X154710285Y-88413857D01*
X154746000Y-88342429D01*
X154817428Y-88271000D01*
X154924571Y-88235286D01*
X154996000Y-88235286D01*
X155103143Y-88271000D01*
X155138857Y-88306714D01*
X155388857Y-88485286D02*
X155567428Y-88985286D01*
X155746000Y-88485286D02*
X155567428Y-88985286D01*
X155496000Y-89163857D01*
X155460285Y-89199571D01*
X155388857Y-89235286D01*
X156031714Y-88985286D02*
X156031714Y-88235286D01*
X156031714Y-88521000D02*
X156103143Y-88485286D01*
X156246000Y-88485286D01*
X156317429Y-88521000D01*
X156353143Y-88556714D01*
X156388857Y-88628143D01*
X156388857Y-88842429D01*
X156353143Y-88913857D01*
X156317429Y-88949571D01*
X156246000Y-88985286D01*
X156103143Y-88985286D01*
X156031714Y-88949571D01*
X156996000Y-88949571D02*
X156924571Y-88985286D01*
X156781714Y-88985286D01*
X156710285Y-88949571D01*
X156674571Y-88878143D01*
X156674571Y-88592429D01*
X156710285Y-88521000D01*
X156781714Y-88485286D01*
X156924571Y-88485286D01*
X156996000Y-88521000D01*
X157031714Y-88592429D01*
X157031714Y-88663857D01*
X156674571Y-88735286D01*
X157353142Y-88985286D02*
X157353142Y-88485286D01*
X157353142Y-88628143D02*
X157388857Y-88556714D01*
X157424571Y-88521000D01*
X157496000Y-88485286D01*
X157567428Y-88485286D01*
X158246000Y-88913857D02*
X158210286Y-88949571D01*
X158103143Y-88985286D01*
X158031714Y-88985286D01*
X157924571Y-88949571D01*
X157853143Y-88878143D01*
X157817428Y-88806714D01*
X157781714Y-88663857D01*
X157781714Y-88556714D01*
X157817428Y-88413857D01*
X157853143Y-88342429D01*
X157924571Y-88271000D01*
X158031714Y-88235286D01*
X158103143Y-88235286D01*
X158210286Y-88271000D01*
X158246000Y-88306714D01*
X158888857Y-88985286D02*
X158888857Y-88592429D01*
X158853143Y-88521000D01*
X158781714Y-88485286D01*
X158638857Y-88485286D01*
X158567428Y-88521000D01*
X158888857Y-88949571D02*
X158817428Y-88985286D01*
X158638857Y-88985286D01*
X158567428Y-88949571D01*
X158531714Y-88878143D01*
X158531714Y-88806714D01*
X158567428Y-88735286D01*
X158638857Y-88699571D01*
X158817428Y-88699571D01*
X158888857Y-88663857D01*
X159245999Y-88985286D02*
X159245999Y-88485286D01*
X159245999Y-88628143D02*
X159281714Y-88556714D01*
X159317428Y-88521000D01*
X159388857Y-88485286D01*
X159460285Y-88485286D01*
X160210286Y-88485286D02*
X160388857Y-88985286D01*
X160567429Y-88485286D01*
X160996001Y-88235286D02*
X161067429Y-88235286D01*
X161138858Y-88271000D01*
X161174572Y-88306714D01*
X161210286Y-88378143D01*
X161246001Y-88521000D01*
X161246001Y-88699571D01*
X161210286Y-88842429D01*
X161174572Y-88913857D01*
X161138858Y-88949571D01*
X161067429Y-88985286D01*
X160996001Y-88985286D01*
X160924572Y-88949571D01*
X160888858Y-88913857D01*
X160853143Y-88842429D01*
X160817429Y-88699571D01*
X160817429Y-88521000D01*
X160853143Y-88378143D01*
X160888858Y-88306714D01*
X160924572Y-88271000D01*
X160996001Y-88235286D01*
X161567429Y-88913857D02*
X161603144Y-88949571D01*
X161567429Y-88985286D01*
X161531715Y-88949571D01*
X161567429Y-88913857D01*
X161567429Y-88985286D01*
X162317430Y-88985286D02*
X161888858Y-88985286D01*
X162103144Y-88985286D02*
X162103144Y-88235286D01*
X162031715Y-88342429D01*
X161960287Y-88413857D01*
X161888858Y-88449571D01*
D13*
X136700000Y-95170000D02*
X136700000Y-87570000D01*
X136700000Y-87570000D02*
X148500000Y-87570000D01*
X148500000Y-87570000D02*
X148500000Y-88770000D01*
X148500000Y-88770000D02*
X144000000Y-88770000D01*
X144000000Y-88770000D02*
X144000000Y-95170000D01*
X136700000Y-95170000D02*
X136700000Y-102770000D01*
X136700000Y-102770000D02*
X148500000Y-102770000D01*
X148500000Y-102770000D02*
X148500000Y-101570000D01*
X148500000Y-101570000D02*
X144000000Y-101570000D01*
X144000000Y-101570000D02*
X144000000Y-95170000D01*
X143350000Y-89920000D02*
X137350000Y-89920000D01*
X137350000Y-89920000D02*
X137350000Y-90420000D01*
X137350000Y-90420000D02*
X143350000Y-90420000D01*
X143350000Y-90420000D02*
X143350000Y-89920000D01*
X143350000Y-92420000D02*
X137350000Y-92420000D01*
X137350000Y-92420000D02*
X137350000Y-92920000D01*
X137350000Y-92920000D02*
X143350000Y-92920000D01*
X143350000Y-92920000D02*
X143350000Y-92420000D01*
X143350000Y-94920000D02*
X137350000Y-94920000D01*
X137350000Y-94920000D02*
X137350000Y-95420000D01*
X137350000Y-95420000D02*
X143350000Y-95420000D01*
X143350000Y-95420000D02*
X143350000Y-94920000D01*
X143350000Y-97420000D02*
X137350000Y-97420000D01*
X137350000Y-97420000D02*
X137350000Y-97920000D01*
X137350000Y-97920000D02*
X143350000Y-97920000D01*
X143350000Y-97920000D02*
X143350000Y-97420000D01*
X143350000Y-99920000D02*
X137350000Y-99920000D01*
X137350000Y-99920000D02*
X137350000Y-100420000D01*
X137350000Y-100420000D02*
X143350000Y-100420000D01*
X143350000Y-100420000D02*
X143350000Y-99920000D01*
X147550000Y-90170000D02*
X148150000Y-89870000D01*
X148150000Y-89870000D02*
X148150000Y-90470000D01*
X148150000Y-90470000D02*
X147550000Y-90170000D01*
X170640000Y-95270000D02*
X170640000Y-99120000D01*
X170640000Y-99120000D02*
X158840000Y-99120000D01*
X158840000Y-99120000D02*
X158840000Y-97920000D01*
X158840000Y-97920000D02*
X163340000Y-97920000D01*
X163340000Y-97920000D02*
X163340000Y-95270000D01*
X170640000Y-95270000D02*
X170640000Y-91420000D01*
X170640000Y-91420000D02*
X158840000Y-91420000D01*
X158840000Y-91420000D02*
X158840000Y-92620000D01*
X158840000Y-92620000D02*
X163340000Y-92620000D01*
X163340000Y-92620000D02*
X163340000Y-95270000D01*
X163990000Y-96770000D02*
X169990000Y-96770000D01*
X169990000Y-96770000D02*
X169990000Y-96270000D01*
X169990000Y-96270000D02*
X163990000Y-96270000D01*
X163990000Y-96270000D02*
X163990000Y-96770000D01*
X163990000Y-94270000D02*
X169990000Y-94270000D01*
X169990000Y-94270000D02*
X169990000Y-93770000D01*
X169990000Y-93770000D02*
X163990000Y-93770000D01*
X163990000Y-93770000D02*
X163990000Y-94270000D01*
X159790000Y-96520000D02*
X159190000Y-96820000D01*
X159190000Y-96820000D02*
X159190000Y-96220000D01*
X159190000Y-96220000D02*
X159790000Y-96520000D01*
X152230000Y-92675000D02*
X152230000Y-92725000D01*
X156380000Y-92675000D02*
X156380000Y-92820000D01*
X156380000Y-97825000D02*
X156380000Y-97680000D01*
X152230000Y-97825000D02*
X152230000Y-97680000D01*
X152230000Y-92675000D02*
X156380000Y-92675000D01*
X152230000Y-97825000D02*
X156380000Y-97825000D01*
X152230000Y-92725000D02*
X150830000Y-92725000D01*
X149121905Y-89098381D02*
X149121905Y-88098381D01*
X149502858Y-88098381D01*
X149598096Y-88146000D01*
X149645715Y-88193619D01*
X149693334Y-88288857D01*
X149693334Y-88431714D01*
X149645715Y-88526952D01*
X149598096Y-88574571D01*
X149502858Y-88622190D01*
X149121905Y-88622190D01*
X150645715Y-89098381D02*
X150074286Y-89098381D01*
X150360000Y-89098381D02*
X150360000Y-88098381D01*
X150264762Y-88241238D01*
X150169524Y-88336476D01*
X150074286Y-88384095D01*
X158646905Y-90622381D02*
X158646905Y-89622381D01*
X159027858Y-89622381D01*
X159123096Y-89670000D01*
X159170715Y-89717619D01*
X159218334Y-89812857D01*
X159218334Y-89955714D01*
X159170715Y-90050952D01*
X159123096Y-90098571D01*
X159027858Y-90146190D01*
X158646905Y-90146190D01*
X159599286Y-89717619D02*
X159646905Y-89670000D01*
X159742143Y-89622381D01*
X159980239Y-89622381D01*
X160075477Y-89670000D01*
X160123096Y-89717619D01*
X160170715Y-89812857D01*
X160170715Y-89908095D01*
X160123096Y-90050952D01*
X159551667Y-90622381D01*
X160170715Y-90622381D01*
X155448095Y-90892381D02*
X155448095Y-91701905D01*
X155495714Y-91797143D01*
X155543333Y-91844762D01*
X155638571Y-91892381D01*
X155829048Y-91892381D01*
X155924286Y-91844762D01*
X155971905Y-91797143D01*
X156019524Y-91701905D01*
X156019524Y-90892381D01*
X157019524Y-91892381D02*
X156448095Y-91892381D01*
X156733809Y-91892381D02*
X156733809Y-90892381D01*
X156638571Y-91035238D01*
X156543333Y-91130476D01*
X156448095Y-91178095D01*
%LPC*%
D14*
X146050000Y-90170000D03*
D15*
X146050000Y-92670000D03*
X146050000Y-95170000D03*
X146050000Y-97670000D03*
X146050000Y-100170000D03*
D14*
X161290000Y-96520000D03*
D15*
X161290000Y-94020000D03*
D16*
X151605000Y-93345000D03*
X151605000Y-94615000D03*
X151605000Y-95885000D03*
X151605000Y-97155000D03*
X157005000Y-97155000D03*
X157005000Y-95885000D03*
X157005000Y-94615000D03*
X157005000Y-93345000D03*
M02*
