G04 #@! TF.FileFunction,Copper,L1,Top,Signal*
%FSLAX45Y45*%
G04 Gerber Fmt 4.5, Leading zero omitted, Abs format (unit mm)*
G04 Created by KiCad (PCBNEW 4.0.4-stable) date Sat Oct 15 01:23:03 2016*
%MOMM*%
%LPD*%
G01*
G04 APERTURE LIST*
%ADD10C,0.100000*%
%ADD11R,1.750000X1.750000*%
%ADD12C,1.750000*%
%ADD13R,1.550000X0.600000*%
%ADD14C,0.250000*%
%ADD15C,0.254000*%
G04 APERTURE END LIST*
D10*
D11*
X2946400Y-2717800D03*
D12*
X2946400Y-2967800D03*
X2946400Y-3217800D03*
X2946400Y-3467800D03*
X2946400Y-3717800D03*
D11*
X4470400Y-3352800D03*
D12*
X4470400Y-3102800D03*
D13*
X3501900Y-3035300D03*
X3501900Y-3162300D03*
X3501900Y-3289300D03*
X3501900Y-3416300D03*
X4041900Y-3416300D03*
X4041900Y-3289300D03*
X4041900Y-3162300D03*
X4041900Y-3035300D03*
D14*
X3501900Y-3416300D02*
X3644900Y-3416300D01*
X3708400Y-2717800D02*
X2946400Y-2717800D01*
X3771900Y-2781300D02*
X3708400Y-2717800D01*
X3771900Y-3289300D02*
X3771900Y-2781300D01*
X3644900Y-3416300D02*
X3771900Y-3289300D01*
X2946400Y-2967800D02*
X3434400Y-2967800D01*
X3434400Y-2967800D02*
X3501900Y-3035300D01*
X4041900Y-3289300D02*
X4406900Y-3289300D01*
X4406900Y-3289300D02*
X4470400Y-3352800D01*
X4041900Y-3162300D02*
X4410900Y-3162300D01*
X4410900Y-3162300D02*
X4470400Y-3102800D01*
X2946400Y-3467800D02*
X3085400Y-3467800D01*
X3263900Y-3289300D02*
X3501900Y-3289300D01*
X3085400Y-3467800D02*
X3263900Y-3289300D01*
X2946400Y-3717800D02*
X3740400Y-3717800D01*
X3740400Y-3717800D02*
X4041900Y-3416300D01*
D15*
G36*
X4630500Y-3944700D02*
X2786300Y-3944700D01*
X2786300Y-3194331D01*
X2794241Y-3194331D01*
X2796842Y-3254346D01*
X2814805Y-3297712D01*
X2840194Y-3306045D01*
X2928439Y-3217800D01*
X2964360Y-3217800D01*
X3052606Y-3306045D01*
X3077995Y-3297712D01*
X3098559Y-3241269D01*
X3095958Y-3181254D01*
X3077995Y-3137888D01*
X3052606Y-3129554D01*
X2964360Y-3217800D01*
X2928439Y-3217800D01*
X2840194Y-3129554D01*
X2814805Y-3137888D01*
X2794241Y-3194331D01*
X2786300Y-3194331D01*
X2786300Y-2630300D01*
X2794156Y-2630300D01*
X2794156Y-2805300D01*
X2798584Y-2828832D01*
X2812491Y-2850444D01*
X2833711Y-2864943D01*
X2835368Y-2865279D01*
X2818463Y-2882154D01*
X2795426Y-2937632D01*
X2795374Y-2997704D01*
X2818314Y-3053223D01*
X2860754Y-3095737D01*
X2863047Y-3096689D01*
X2858154Y-3111594D01*
X2946400Y-3199839D01*
X3034645Y-3111594D01*
X3029768Y-3096735D01*
X3031823Y-3095886D01*
X3074337Y-3053446D01*
X3078342Y-3043800D01*
X3359656Y-3043800D01*
X3359656Y-3065300D01*
X3364084Y-3088832D01*
X3369918Y-3097898D01*
X3360900Y-3119669D01*
X3360900Y-3133725D01*
X3376775Y-3149600D01*
X3489200Y-3149600D01*
X3489200Y-3147600D01*
X3514600Y-3147600D01*
X3514600Y-3149600D01*
X3627025Y-3149600D01*
X3642900Y-3133725D01*
X3642900Y-3119669D01*
X3633919Y-3097988D01*
X3639043Y-3090489D01*
X3644144Y-3065300D01*
X3644144Y-3005300D01*
X3639716Y-2981768D01*
X3625809Y-2960156D01*
X3604589Y-2945657D01*
X3579400Y-2940556D01*
X3514636Y-2940556D01*
X3488140Y-2914060D01*
X3463484Y-2897585D01*
X3434400Y-2891800D01*
X3078380Y-2891800D01*
X3074486Y-2882377D01*
X3057628Y-2865490D01*
X3079044Y-2851709D01*
X3093543Y-2830489D01*
X3098644Y-2805300D01*
X3098644Y-2793800D01*
X3676920Y-2793800D01*
X3695900Y-2812780D01*
X3695900Y-3257820D01*
X3644144Y-3309576D01*
X3644144Y-3259300D01*
X3639716Y-3235768D01*
X3633882Y-3226702D01*
X3642900Y-3204931D01*
X3642900Y-3190875D01*
X3627025Y-3175000D01*
X3514600Y-3175000D01*
X3514600Y-3177000D01*
X3489200Y-3177000D01*
X3489200Y-3175000D01*
X3376775Y-3175000D01*
X3360900Y-3190875D01*
X3360900Y-3204931D01*
X3364367Y-3213300D01*
X3263900Y-3213300D01*
X3234816Y-3219085D01*
X3210160Y-3235560D01*
X3068919Y-3376800D01*
X3032046Y-3339863D01*
X3029753Y-3338911D01*
X3034645Y-3324006D01*
X2946400Y-3235760D01*
X2858154Y-3324006D01*
X2863032Y-3338865D01*
X2860977Y-3339714D01*
X2818463Y-3382154D01*
X2795426Y-3437632D01*
X2795374Y-3497704D01*
X2818314Y-3553223D01*
X2857854Y-3592832D01*
X2818463Y-3632154D01*
X2795426Y-3687632D01*
X2795374Y-3747704D01*
X2818314Y-3803223D01*
X2860754Y-3845737D01*
X2916232Y-3868774D01*
X2976304Y-3868826D01*
X3031823Y-3845886D01*
X3074337Y-3803446D01*
X3078342Y-3793800D01*
X3740400Y-3793800D01*
X3769484Y-3788015D01*
X3794140Y-3771540D01*
X4054636Y-3511044D01*
X4119400Y-3511044D01*
X4142932Y-3506616D01*
X4164544Y-3492709D01*
X4179043Y-3471489D01*
X4184144Y-3446300D01*
X4184144Y-3386300D01*
X4180193Y-3365300D01*
X4318156Y-3365300D01*
X4318156Y-3440300D01*
X4322584Y-3463832D01*
X4336491Y-3485444D01*
X4357711Y-3499943D01*
X4382900Y-3505044D01*
X4557900Y-3505044D01*
X4581432Y-3500616D01*
X4603044Y-3486709D01*
X4617543Y-3465489D01*
X4622644Y-3440300D01*
X4622644Y-3265300D01*
X4618216Y-3241768D01*
X4604309Y-3220156D01*
X4583089Y-3205657D01*
X4581432Y-3205321D01*
X4598337Y-3188446D01*
X4621374Y-3132967D01*
X4621426Y-3072896D01*
X4598486Y-3017377D01*
X4556046Y-2974863D01*
X4500568Y-2951826D01*
X4440496Y-2951774D01*
X4384977Y-2974714D01*
X4342463Y-3017154D01*
X4319426Y-3072632D01*
X4319414Y-3086300D01*
X4179433Y-3086300D01*
X4182900Y-3077931D01*
X4182900Y-3063875D01*
X4167025Y-3048000D01*
X4054600Y-3048000D01*
X4054600Y-3050000D01*
X4029200Y-3050000D01*
X4029200Y-3048000D01*
X3916775Y-3048000D01*
X3900900Y-3063875D01*
X3900900Y-3077931D01*
X3909881Y-3099612D01*
X3904757Y-3107111D01*
X3899656Y-3132300D01*
X3899656Y-3192300D01*
X3904084Y-3215832D01*
X3910468Y-3225753D01*
X3904757Y-3234111D01*
X3899656Y-3259300D01*
X3899656Y-3319300D01*
X3904084Y-3342832D01*
X3910468Y-3352753D01*
X3904757Y-3361111D01*
X3899656Y-3386300D01*
X3899656Y-3446300D01*
X3900410Y-3450309D01*
X3708920Y-3641800D01*
X3078380Y-3641800D01*
X3074486Y-3632377D01*
X3034946Y-3592768D01*
X3074337Y-3553446D01*
X3078342Y-3543800D01*
X3085400Y-3543800D01*
X3114484Y-3538015D01*
X3139140Y-3521540D01*
X3295380Y-3365300D01*
X3363909Y-3365300D01*
X3359656Y-3386300D01*
X3359656Y-3446300D01*
X3364084Y-3469832D01*
X3377991Y-3491444D01*
X3399211Y-3505943D01*
X3424400Y-3511044D01*
X3579400Y-3511044D01*
X3602932Y-3506616D01*
X3624544Y-3492709D01*
X3624824Y-3492300D01*
X3644900Y-3492300D01*
X3673984Y-3486515D01*
X3698640Y-3470040D01*
X3825640Y-3343040D01*
X3842115Y-3318384D01*
X3847900Y-3289300D01*
X3847900Y-2992669D01*
X3900900Y-2992669D01*
X3900900Y-3006725D01*
X3916775Y-3022600D01*
X4029200Y-3022600D01*
X4029200Y-2957675D01*
X4054600Y-2957675D01*
X4054600Y-3022600D01*
X4167025Y-3022600D01*
X4182900Y-3006725D01*
X4182900Y-2992669D01*
X4173233Y-2969330D01*
X4155370Y-2951467D01*
X4132031Y-2941800D01*
X4070475Y-2941800D01*
X4054600Y-2957675D01*
X4029200Y-2957675D01*
X4013325Y-2941800D01*
X3951769Y-2941800D01*
X3928430Y-2951467D01*
X3910567Y-2969330D01*
X3900900Y-2992669D01*
X3847900Y-2992669D01*
X3847900Y-2781300D01*
X3842115Y-2752216D01*
X3825640Y-2727560D01*
X3762140Y-2664060D01*
X3737484Y-2647585D01*
X3708400Y-2641800D01*
X3098644Y-2641800D01*
X3098644Y-2630300D01*
X3094216Y-2606768D01*
X3080309Y-2585156D01*
X3059089Y-2570657D01*
X3033900Y-2565556D01*
X2858900Y-2565556D01*
X2835368Y-2569984D01*
X2813756Y-2583891D01*
X2799257Y-2605111D01*
X2794156Y-2630300D01*
X2786300Y-2630300D01*
X2786300Y-2481500D01*
X4630500Y-2481500D01*
X4630500Y-3944700D01*
X4630500Y-3944700D01*
G37*
X4630500Y-3944700D02*
X2786300Y-3944700D01*
X2786300Y-3194331D01*
X2794241Y-3194331D01*
X2796842Y-3254346D01*
X2814805Y-3297712D01*
X2840194Y-3306045D01*
X2928439Y-3217800D01*
X2964360Y-3217800D01*
X3052606Y-3306045D01*
X3077995Y-3297712D01*
X3098559Y-3241269D01*
X3095958Y-3181254D01*
X3077995Y-3137888D01*
X3052606Y-3129554D01*
X2964360Y-3217800D01*
X2928439Y-3217800D01*
X2840194Y-3129554D01*
X2814805Y-3137888D01*
X2794241Y-3194331D01*
X2786300Y-3194331D01*
X2786300Y-2630300D01*
X2794156Y-2630300D01*
X2794156Y-2805300D01*
X2798584Y-2828832D01*
X2812491Y-2850444D01*
X2833711Y-2864943D01*
X2835368Y-2865279D01*
X2818463Y-2882154D01*
X2795426Y-2937632D01*
X2795374Y-2997704D01*
X2818314Y-3053223D01*
X2860754Y-3095737D01*
X2863047Y-3096689D01*
X2858154Y-3111594D01*
X2946400Y-3199839D01*
X3034645Y-3111594D01*
X3029768Y-3096735D01*
X3031823Y-3095886D01*
X3074337Y-3053446D01*
X3078342Y-3043800D01*
X3359656Y-3043800D01*
X3359656Y-3065300D01*
X3364084Y-3088832D01*
X3369918Y-3097898D01*
X3360900Y-3119669D01*
X3360900Y-3133725D01*
X3376775Y-3149600D01*
X3489200Y-3149600D01*
X3489200Y-3147600D01*
X3514600Y-3147600D01*
X3514600Y-3149600D01*
X3627025Y-3149600D01*
X3642900Y-3133725D01*
X3642900Y-3119669D01*
X3633919Y-3097988D01*
X3639043Y-3090489D01*
X3644144Y-3065300D01*
X3644144Y-3005300D01*
X3639716Y-2981768D01*
X3625809Y-2960156D01*
X3604589Y-2945657D01*
X3579400Y-2940556D01*
X3514636Y-2940556D01*
X3488140Y-2914060D01*
X3463484Y-2897585D01*
X3434400Y-2891800D01*
X3078380Y-2891800D01*
X3074486Y-2882377D01*
X3057628Y-2865490D01*
X3079044Y-2851709D01*
X3093543Y-2830489D01*
X3098644Y-2805300D01*
X3098644Y-2793800D01*
X3676920Y-2793800D01*
X3695900Y-2812780D01*
X3695900Y-3257820D01*
X3644144Y-3309576D01*
X3644144Y-3259300D01*
X3639716Y-3235768D01*
X3633882Y-3226702D01*
X3642900Y-3204931D01*
X3642900Y-3190875D01*
X3627025Y-3175000D01*
X3514600Y-3175000D01*
X3514600Y-3177000D01*
X3489200Y-3177000D01*
X3489200Y-3175000D01*
X3376775Y-3175000D01*
X3360900Y-3190875D01*
X3360900Y-3204931D01*
X3364367Y-3213300D01*
X3263900Y-3213300D01*
X3234816Y-3219085D01*
X3210160Y-3235560D01*
X3068919Y-3376800D01*
X3032046Y-3339863D01*
X3029753Y-3338911D01*
X3034645Y-3324006D01*
X2946400Y-3235760D01*
X2858154Y-3324006D01*
X2863032Y-3338865D01*
X2860977Y-3339714D01*
X2818463Y-3382154D01*
X2795426Y-3437632D01*
X2795374Y-3497704D01*
X2818314Y-3553223D01*
X2857854Y-3592832D01*
X2818463Y-3632154D01*
X2795426Y-3687632D01*
X2795374Y-3747704D01*
X2818314Y-3803223D01*
X2860754Y-3845737D01*
X2916232Y-3868774D01*
X2976304Y-3868826D01*
X3031823Y-3845886D01*
X3074337Y-3803446D01*
X3078342Y-3793800D01*
X3740400Y-3793800D01*
X3769484Y-3788015D01*
X3794140Y-3771540D01*
X4054636Y-3511044D01*
X4119400Y-3511044D01*
X4142932Y-3506616D01*
X4164544Y-3492709D01*
X4179043Y-3471489D01*
X4184144Y-3446300D01*
X4184144Y-3386300D01*
X4180193Y-3365300D01*
X4318156Y-3365300D01*
X4318156Y-3440300D01*
X4322584Y-3463832D01*
X4336491Y-3485444D01*
X4357711Y-3499943D01*
X4382900Y-3505044D01*
X4557900Y-3505044D01*
X4581432Y-3500616D01*
X4603044Y-3486709D01*
X4617543Y-3465489D01*
X4622644Y-3440300D01*
X4622644Y-3265300D01*
X4618216Y-3241768D01*
X4604309Y-3220156D01*
X4583089Y-3205657D01*
X4581432Y-3205321D01*
X4598337Y-3188446D01*
X4621374Y-3132967D01*
X4621426Y-3072896D01*
X4598486Y-3017377D01*
X4556046Y-2974863D01*
X4500568Y-2951826D01*
X4440496Y-2951774D01*
X4384977Y-2974714D01*
X4342463Y-3017154D01*
X4319426Y-3072632D01*
X4319414Y-3086300D01*
X4179433Y-3086300D01*
X4182900Y-3077931D01*
X4182900Y-3063875D01*
X4167025Y-3048000D01*
X4054600Y-3048000D01*
X4054600Y-3050000D01*
X4029200Y-3050000D01*
X4029200Y-3048000D01*
X3916775Y-3048000D01*
X3900900Y-3063875D01*
X3900900Y-3077931D01*
X3909881Y-3099612D01*
X3904757Y-3107111D01*
X3899656Y-3132300D01*
X3899656Y-3192300D01*
X3904084Y-3215832D01*
X3910468Y-3225753D01*
X3904757Y-3234111D01*
X3899656Y-3259300D01*
X3899656Y-3319300D01*
X3904084Y-3342832D01*
X3910468Y-3352753D01*
X3904757Y-3361111D01*
X3899656Y-3386300D01*
X3899656Y-3446300D01*
X3900410Y-3450309D01*
X3708920Y-3641800D01*
X3078380Y-3641800D01*
X3074486Y-3632377D01*
X3034946Y-3592768D01*
X3074337Y-3553446D01*
X3078342Y-3543800D01*
X3085400Y-3543800D01*
X3114484Y-3538015D01*
X3139140Y-3521540D01*
X3295380Y-3365300D01*
X3363909Y-3365300D01*
X3359656Y-3386300D01*
X3359656Y-3446300D01*
X3364084Y-3469832D01*
X3377991Y-3491444D01*
X3399211Y-3505943D01*
X3424400Y-3511044D01*
X3579400Y-3511044D01*
X3602932Y-3506616D01*
X3624544Y-3492709D01*
X3624824Y-3492300D01*
X3644900Y-3492300D01*
X3673984Y-3486515D01*
X3698640Y-3470040D01*
X3825640Y-3343040D01*
X3842115Y-3318384D01*
X3847900Y-3289300D01*
X3847900Y-2992669D01*
X3900900Y-2992669D01*
X3900900Y-3006725D01*
X3916775Y-3022600D01*
X4029200Y-3022600D01*
X4029200Y-2957675D01*
X4054600Y-2957675D01*
X4054600Y-3022600D01*
X4167025Y-3022600D01*
X4182900Y-3006725D01*
X4182900Y-2992669D01*
X4173233Y-2969330D01*
X4155370Y-2951467D01*
X4132031Y-2941800D01*
X4070475Y-2941800D01*
X4054600Y-2957675D01*
X4029200Y-2957675D01*
X4013325Y-2941800D01*
X3951769Y-2941800D01*
X3928430Y-2951467D01*
X3910567Y-2969330D01*
X3900900Y-2992669D01*
X3847900Y-2992669D01*
X3847900Y-2781300D01*
X3842115Y-2752216D01*
X3825640Y-2727560D01*
X3762140Y-2664060D01*
X3737484Y-2647585D01*
X3708400Y-2641800D01*
X3098644Y-2641800D01*
X3098644Y-2630300D01*
X3094216Y-2606768D01*
X3080309Y-2585156D01*
X3059089Y-2570657D01*
X3033900Y-2565556D01*
X2858900Y-2565556D01*
X2835368Y-2569984D01*
X2813756Y-2583891D01*
X2799257Y-2605111D01*
X2794156Y-2630300D01*
X2786300Y-2630300D01*
X2786300Y-2481500D01*
X4630500Y-2481500D01*
X4630500Y-3944700D01*
M02*
