%TF.GenerationSoftware,KiCad,Pcbnew,4.0.4-stable*%
%TF.CreationDate,2016-10-13T01:50:32+03:00*%
%TF.ProjectId,CAN bus transceiver v2,43414E20627573207472616E73636569,rev?*%
%TF.FileFunction,Copper,L1,Top,Signal*%
%FSLAX46Y46*%
G04 Gerber Fmt 4.6, Leading zero omitted, Abs format (unit mm)*
G04 Created by KiCad (PCBNEW 4.0.4-stable) date Thu Oct 13 01:50:32 2016*
%MOMM*%
%LPD*%
G01*
G04 APERTURE LIST*
%ADD10C,0.100000*%
%ADD11R,1.750000X1.750000*%
%ADD12C,1.750000*%
%ADD13R,1.550000X0.600000*%
%ADD14C,0.250000*%
%ADD15C,0.254000*%
G04 APERTURE END LIST*
D10*
D11*
X29464000Y-27178000D03*
D12*
X29464000Y-29678000D03*
X29464000Y-32178000D03*
X29464000Y-34678000D03*
X29464000Y-37178000D03*
D11*
X44704000Y-33528000D03*
D12*
X44704000Y-31028000D03*
D13*
X35019000Y-30353000D03*
X35019000Y-31623000D03*
X35019000Y-32893000D03*
X35019000Y-34163000D03*
X40419000Y-34163000D03*
X40419000Y-32893000D03*
X40419000Y-31623000D03*
X40419000Y-30353000D03*
D14*
X35019000Y-34163000D02*
X36449000Y-34163000D01*
X37084000Y-27178000D02*
X29464000Y-27178000D01*
X37719000Y-27813000D02*
X37084000Y-27178000D01*
X37719000Y-32893000D02*
X37719000Y-27813000D01*
X36449000Y-34163000D02*
X37719000Y-32893000D01*
X29464000Y-29678000D02*
X34344000Y-29678000D01*
X34344000Y-29678000D02*
X35019000Y-30353000D01*
X40419000Y-32893000D02*
X44069000Y-32893000D01*
X44069000Y-32893000D02*
X44704000Y-33528000D01*
X40419000Y-31623000D02*
X44109000Y-31623000D01*
X44109000Y-31623000D02*
X44704000Y-31028000D01*
X29464000Y-34678000D02*
X30854000Y-34678000D01*
X32639000Y-32893000D02*
X35019000Y-32893000D01*
X30854000Y-34678000D02*
X32639000Y-32893000D01*
X29464000Y-37178000D02*
X37404000Y-37178000D01*
X37404000Y-37178000D02*
X40419000Y-34163000D01*
D15*
G36*
X46305000Y-39447000D02*
X27863000Y-39447000D01*
X27863000Y-31943306D01*
X27942410Y-31943306D01*
X27968421Y-32543458D01*
X28148047Y-32977116D01*
X28401940Y-33060455D01*
X29284395Y-32178000D01*
X29643605Y-32178000D01*
X30526060Y-33060455D01*
X30779953Y-32977116D01*
X30985590Y-32412694D01*
X30959579Y-31812542D01*
X30779953Y-31378884D01*
X30526060Y-31295545D01*
X29643605Y-32178000D01*
X29284395Y-32178000D01*
X28401940Y-31295545D01*
X28148047Y-31378884D01*
X27942410Y-31943306D01*
X27863000Y-31943306D01*
X27863000Y-26303000D01*
X27941560Y-26303000D01*
X27941560Y-28053000D01*
X27985838Y-28288317D01*
X28124910Y-28504441D01*
X28337110Y-28649431D01*
X28353676Y-28652786D01*
X28184630Y-28821537D01*
X27954262Y-29376325D01*
X27953738Y-29977040D01*
X28183138Y-30532229D01*
X28607537Y-30957370D01*
X28630469Y-30966892D01*
X28581545Y-31115940D01*
X29464000Y-31998395D01*
X30346455Y-31115940D01*
X30297682Y-30967352D01*
X30318229Y-30958862D01*
X30743370Y-30534463D01*
X30783425Y-30438000D01*
X33596560Y-30438000D01*
X33596560Y-30653000D01*
X33640838Y-30888317D01*
X33699178Y-30978980D01*
X33609000Y-31196690D01*
X33609000Y-31337250D01*
X33767750Y-31496000D01*
X34892000Y-31496000D01*
X34892000Y-31476000D01*
X35146000Y-31476000D01*
X35146000Y-31496000D01*
X36270250Y-31496000D01*
X36429000Y-31337250D01*
X36429000Y-31196690D01*
X36339194Y-30979878D01*
X36390431Y-30904890D01*
X36441440Y-30653000D01*
X36441440Y-30053000D01*
X36397162Y-29817683D01*
X36258090Y-29601559D01*
X36045890Y-29456569D01*
X35794000Y-29405560D01*
X35146362Y-29405560D01*
X34881401Y-29140599D01*
X34634839Y-28975852D01*
X34344000Y-28918000D01*
X30783797Y-28918000D01*
X30744862Y-28823771D01*
X30576283Y-28654897D01*
X30790441Y-28517090D01*
X30935431Y-28304890D01*
X30986440Y-28053000D01*
X30986440Y-27938000D01*
X36769198Y-27938000D01*
X36959000Y-28127802D01*
X36959000Y-32578198D01*
X36441440Y-33095758D01*
X36441440Y-32593000D01*
X36397162Y-32357683D01*
X36338822Y-32267020D01*
X36429000Y-32049310D01*
X36429000Y-31908750D01*
X36270250Y-31750000D01*
X35146000Y-31750000D01*
X35146000Y-31770000D01*
X34892000Y-31770000D01*
X34892000Y-31750000D01*
X33767750Y-31750000D01*
X33609000Y-31908750D01*
X33609000Y-32049310D01*
X33643666Y-32133000D01*
X32639000Y-32133000D01*
X32348160Y-32190852D01*
X32101599Y-32355599D01*
X30689193Y-33768005D01*
X30320463Y-33398630D01*
X30297531Y-33389108D01*
X30346455Y-33240060D01*
X29464000Y-32357605D01*
X28581545Y-33240060D01*
X28630318Y-33388648D01*
X28609771Y-33397138D01*
X28184630Y-33821537D01*
X27954262Y-34376325D01*
X27953738Y-34977040D01*
X28183138Y-35532229D01*
X28578536Y-35928318D01*
X28184630Y-36321537D01*
X27954262Y-36876325D01*
X27953738Y-37477040D01*
X28183138Y-38032229D01*
X28607537Y-38457370D01*
X29162325Y-38687738D01*
X29763040Y-38688262D01*
X30318229Y-38458862D01*
X30743370Y-38034463D01*
X30783425Y-37938000D01*
X37404000Y-37938000D01*
X37694839Y-37880148D01*
X37941401Y-37715401D01*
X40546362Y-35110440D01*
X41194000Y-35110440D01*
X41429317Y-35066162D01*
X41645441Y-34927090D01*
X41790431Y-34714890D01*
X41841440Y-34463000D01*
X41841440Y-33863000D01*
X41801926Y-33653000D01*
X43181560Y-33653000D01*
X43181560Y-34403000D01*
X43225838Y-34638317D01*
X43364910Y-34854441D01*
X43577110Y-34999431D01*
X43829000Y-35050440D01*
X45579000Y-35050440D01*
X45814317Y-35006162D01*
X46030441Y-34867090D01*
X46175431Y-34654890D01*
X46226440Y-34403000D01*
X46226440Y-32653000D01*
X46182162Y-32417683D01*
X46043090Y-32201559D01*
X45830890Y-32056569D01*
X45814324Y-32053214D01*
X45983370Y-31884463D01*
X46213738Y-31329675D01*
X46214262Y-30728960D01*
X45984862Y-30173771D01*
X45560463Y-29748630D01*
X45005675Y-29518262D01*
X44404960Y-29517738D01*
X43849771Y-29747138D01*
X43424630Y-30171537D01*
X43194262Y-30726325D01*
X43194143Y-30863000D01*
X41794334Y-30863000D01*
X41829000Y-30779310D01*
X41829000Y-30638750D01*
X41670250Y-30480000D01*
X40546000Y-30480000D01*
X40546000Y-30500000D01*
X40292000Y-30500000D01*
X40292000Y-30480000D01*
X39167750Y-30480000D01*
X39009000Y-30638750D01*
X39009000Y-30779310D01*
X39098806Y-30996122D01*
X39047569Y-31071110D01*
X38996560Y-31323000D01*
X38996560Y-31923000D01*
X39040838Y-32158317D01*
X39104678Y-32257528D01*
X39047569Y-32341110D01*
X38996560Y-32593000D01*
X38996560Y-33193000D01*
X39040838Y-33428317D01*
X39104678Y-33527528D01*
X39047569Y-33611110D01*
X38996560Y-33863000D01*
X38996560Y-34463000D01*
X39004104Y-34503094D01*
X37089198Y-36418000D01*
X30783797Y-36418000D01*
X30744862Y-36323771D01*
X30349464Y-35927682D01*
X30743370Y-35534463D01*
X30783425Y-35438000D01*
X30854000Y-35438000D01*
X31144839Y-35380148D01*
X31391401Y-35215401D01*
X32953802Y-33653000D01*
X33639086Y-33653000D01*
X33596560Y-33863000D01*
X33596560Y-34463000D01*
X33640838Y-34698317D01*
X33779910Y-34914441D01*
X33992110Y-35059431D01*
X34244000Y-35110440D01*
X35794000Y-35110440D01*
X36029317Y-35066162D01*
X36245441Y-34927090D01*
X36248236Y-34923000D01*
X36449000Y-34923000D01*
X36739839Y-34865148D01*
X36986401Y-34700401D01*
X38256401Y-33430401D01*
X38421148Y-33183840D01*
X38479000Y-32893000D01*
X38479000Y-29926690D01*
X39009000Y-29926690D01*
X39009000Y-30067250D01*
X39167750Y-30226000D01*
X40292000Y-30226000D01*
X40292000Y-29576750D01*
X40546000Y-29576750D01*
X40546000Y-30226000D01*
X41670250Y-30226000D01*
X41829000Y-30067250D01*
X41829000Y-29926690D01*
X41732327Y-29693301D01*
X41553698Y-29514673D01*
X41320309Y-29418000D01*
X40704750Y-29418000D01*
X40546000Y-29576750D01*
X40292000Y-29576750D01*
X40133250Y-29418000D01*
X39517691Y-29418000D01*
X39284302Y-29514673D01*
X39105673Y-29693301D01*
X39009000Y-29926690D01*
X38479000Y-29926690D01*
X38479000Y-27813000D01*
X38421148Y-27522161D01*
X38256401Y-27275599D01*
X37621401Y-26640599D01*
X37374839Y-26475852D01*
X37084000Y-26418000D01*
X30986440Y-26418000D01*
X30986440Y-26303000D01*
X30942162Y-26067683D01*
X30803090Y-25851559D01*
X30590890Y-25706569D01*
X30339000Y-25655560D01*
X28589000Y-25655560D01*
X28353683Y-25699838D01*
X28137559Y-25838910D01*
X27992569Y-26051110D01*
X27941560Y-26303000D01*
X27863000Y-26303000D01*
X27863000Y-24815000D01*
X46305000Y-24815000D01*
X46305000Y-39447000D01*
X46305000Y-39447000D01*
G37*
X46305000Y-39447000D02*
X27863000Y-39447000D01*
X27863000Y-31943306D01*
X27942410Y-31943306D01*
X27968421Y-32543458D01*
X28148047Y-32977116D01*
X28401940Y-33060455D01*
X29284395Y-32178000D01*
X29643605Y-32178000D01*
X30526060Y-33060455D01*
X30779953Y-32977116D01*
X30985590Y-32412694D01*
X30959579Y-31812542D01*
X30779953Y-31378884D01*
X30526060Y-31295545D01*
X29643605Y-32178000D01*
X29284395Y-32178000D01*
X28401940Y-31295545D01*
X28148047Y-31378884D01*
X27942410Y-31943306D01*
X27863000Y-31943306D01*
X27863000Y-26303000D01*
X27941560Y-26303000D01*
X27941560Y-28053000D01*
X27985838Y-28288317D01*
X28124910Y-28504441D01*
X28337110Y-28649431D01*
X28353676Y-28652786D01*
X28184630Y-28821537D01*
X27954262Y-29376325D01*
X27953738Y-29977040D01*
X28183138Y-30532229D01*
X28607537Y-30957370D01*
X28630469Y-30966892D01*
X28581545Y-31115940D01*
X29464000Y-31998395D01*
X30346455Y-31115940D01*
X30297682Y-30967352D01*
X30318229Y-30958862D01*
X30743370Y-30534463D01*
X30783425Y-30438000D01*
X33596560Y-30438000D01*
X33596560Y-30653000D01*
X33640838Y-30888317D01*
X33699178Y-30978980D01*
X33609000Y-31196690D01*
X33609000Y-31337250D01*
X33767750Y-31496000D01*
X34892000Y-31496000D01*
X34892000Y-31476000D01*
X35146000Y-31476000D01*
X35146000Y-31496000D01*
X36270250Y-31496000D01*
X36429000Y-31337250D01*
X36429000Y-31196690D01*
X36339194Y-30979878D01*
X36390431Y-30904890D01*
X36441440Y-30653000D01*
X36441440Y-30053000D01*
X36397162Y-29817683D01*
X36258090Y-29601559D01*
X36045890Y-29456569D01*
X35794000Y-29405560D01*
X35146362Y-29405560D01*
X34881401Y-29140599D01*
X34634839Y-28975852D01*
X34344000Y-28918000D01*
X30783797Y-28918000D01*
X30744862Y-28823771D01*
X30576283Y-28654897D01*
X30790441Y-28517090D01*
X30935431Y-28304890D01*
X30986440Y-28053000D01*
X30986440Y-27938000D01*
X36769198Y-27938000D01*
X36959000Y-28127802D01*
X36959000Y-32578198D01*
X36441440Y-33095758D01*
X36441440Y-32593000D01*
X36397162Y-32357683D01*
X36338822Y-32267020D01*
X36429000Y-32049310D01*
X36429000Y-31908750D01*
X36270250Y-31750000D01*
X35146000Y-31750000D01*
X35146000Y-31770000D01*
X34892000Y-31770000D01*
X34892000Y-31750000D01*
X33767750Y-31750000D01*
X33609000Y-31908750D01*
X33609000Y-32049310D01*
X33643666Y-32133000D01*
X32639000Y-32133000D01*
X32348160Y-32190852D01*
X32101599Y-32355599D01*
X30689193Y-33768005D01*
X30320463Y-33398630D01*
X30297531Y-33389108D01*
X30346455Y-33240060D01*
X29464000Y-32357605D01*
X28581545Y-33240060D01*
X28630318Y-33388648D01*
X28609771Y-33397138D01*
X28184630Y-33821537D01*
X27954262Y-34376325D01*
X27953738Y-34977040D01*
X28183138Y-35532229D01*
X28578536Y-35928318D01*
X28184630Y-36321537D01*
X27954262Y-36876325D01*
X27953738Y-37477040D01*
X28183138Y-38032229D01*
X28607537Y-38457370D01*
X29162325Y-38687738D01*
X29763040Y-38688262D01*
X30318229Y-38458862D01*
X30743370Y-38034463D01*
X30783425Y-37938000D01*
X37404000Y-37938000D01*
X37694839Y-37880148D01*
X37941401Y-37715401D01*
X40546362Y-35110440D01*
X41194000Y-35110440D01*
X41429317Y-35066162D01*
X41645441Y-34927090D01*
X41790431Y-34714890D01*
X41841440Y-34463000D01*
X41841440Y-33863000D01*
X41801926Y-33653000D01*
X43181560Y-33653000D01*
X43181560Y-34403000D01*
X43225838Y-34638317D01*
X43364910Y-34854441D01*
X43577110Y-34999431D01*
X43829000Y-35050440D01*
X45579000Y-35050440D01*
X45814317Y-35006162D01*
X46030441Y-34867090D01*
X46175431Y-34654890D01*
X46226440Y-34403000D01*
X46226440Y-32653000D01*
X46182162Y-32417683D01*
X46043090Y-32201559D01*
X45830890Y-32056569D01*
X45814324Y-32053214D01*
X45983370Y-31884463D01*
X46213738Y-31329675D01*
X46214262Y-30728960D01*
X45984862Y-30173771D01*
X45560463Y-29748630D01*
X45005675Y-29518262D01*
X44404960Y-29517738D01*
X43849771Y-29747138D01*
X43424630Y-30171537D01*
X43194262Y-30726325D01*
X43194143Y-30863000D01*
X41794334Y-30863000D01*
X41829000Y-30779310D01*
X41829000Y-30638750D01*
X41670250Y-30480000D01*
X40546000Y-30480000D01*
X40546000Y-30500000D01*
X40292000Y-30500000D01*
X40292000Y-30480000D01*
X39167750Y-30480000D01*
X39009000Y-30638750D01*
X39009000Y-30779310D01*
X39098806Y-30996122D01*
X39047569Y-31071110D01*
X38996560Y-31323000D01*
X38996560Y-31923000D01*
X39040838Y-32158317D01*
X39104678Y-32257528D01*
X39047569Y-32341110D01*
X38996560Y-32593000D01*
X38996560Y-33193000D01*
X39040838Y-33428317D01*
X39104678Y-33527528D01*
X39047569Y-33611110D01*
X38996560Y-33863000D01*
X38996560Y-34463000D01*
X39004104Y-34503094D01*
X37089198Y-36418000D01*
X30783797Y-36418000D01*
X30744862Y-36323771D01*
X30349464Y-35927682D01*
X30743370Y-35534463D01*
X30783425Y-35438000D01*
X30854000Y-35438000D01*
X31144839Y-35380148D01*
X31391401Y-35215401D01*
X32953802Y-33653000D01*
X33639086Y-33653000D01*
X33596560Y-33863000D01*
X33596560Y-34463000D01*
X33640838Y-34698317D01*
X33779910Y-34914441D01*
X33992110Y-35059431D01*
X34244000Y-35110440D01*
X35794000Y-35110440D01*
X36029317Y-35066162D01*
X36245441Y-34927090D01*
X36248236Y-34923000D01*
X36449000Y-34923000D01*
X36739839Y-34865148D01*
X36986401Y-34700401D01*
X38256401Y-33430401D01*
X38421148Y-33183840D01*
X38479000Y-32893000D01*
X38479000Y-29926690D01*
X39009000Y-29926690D01*
X39009000Y-30067250D01*
X39167750Y-30226000D01*
X40292000Y-30226000D01*
X40292000Y-29576750D01*
X40546000Y-29576750D01*
X40546000Y-30226000D01*
X41670250Y-30226000D01*
X41829000Y-30067250D01*
X41829000Y-29926690D01*
X41732327Y-29693301D01*
X41553698Y-29514673D01*
X41320309Y-29418000D01*
X40704750Y-29418000D01*
X40546000Y-29576750D01*
X40292000Y-29576750D01*
X40133250Y-29418000D01*
X39517691Y-29418000D01*
X39284302Y-29514673D01*
X39105673Y-29693301D01*
X39009000Y-29926690D01*
X38479000Y-29926690D01*
X38479000Y-27813000D01*
X38421148Y-27522161D01*
X38256401Y-27275599D01*
X37621401Y-26640599D01*
X37374839Y-26475852D01*
X37084000Y-26418000D01*
X30986440Y-26418000D01*
X30986440Y-26303000D01*
X30942162Y-26067683D01*
X30803090Y-25851559D01*
X30590890Y-25706569D01*
X30339000Y-25655560D01*
X28589000Y-25655560D01*
X28353683Y-25699838D01*
X28137559Y-25838910D01*
X27992569Y-26051110D01*
X27941560Y-26303000D01*
X27863000Y-26303000D01*
X27863000Y-24815000D01*
X46305000Y-24815000D01*
X46305000Y-39447000D01*
M02*
