%TF.GenerationSoftware,KiCad,Pcbnew,4.0.4-stable*%
%TF.CreationDate,2016-10-13T01:50:32+03:00*%
%TF.ProjectId,CAN bus transceiver v2,43414E20627573207472616E73636569,rev?*%
%TF.FileFunction,Legend,Top*%
%FSLAX46Y46*%
G04 Gerber Fmt 4.6, Leading zero omitted, Abs format (unit mm)*
G04 Created by KiCad (PCBNEW 4.0.4-stable) date Thu Oct 13 01:50:32 2016*
%MOMM*%
%LPD*%
G01*
G04 APERTURE LIST*
%ADD10C,0.100000*%
%ADD11C,0.125000*%
%ADD12C,0.187500*%
%ADD13C,0.150000*%
%ADD14R,1.750000X1.750000*%
%ADD15C,1.750000*%
%ADD16R,1.550000X0.600000*%
G04 APERTURE END LIST*
D10*
D11*
X37620288Y-39040571D02*
X37596478Y-39064381D01*
X37525050Y-39088190D01*
X37477431Y-39088190D01*
X37406002Y-39064381D01*
X37358383Y-39016762D01*
X37334574Y-38969143D01*
X37310764Y-38873905D01*
X37310764Y-38802476D01*
X37334574Y-38707238D01*
X37358383Y-38659619D01*
X37406002Y-38612000D01*
X37477431Y-38588190D01*
X37525050Y-38588190D01*
X37596478Y-38612000D01*
X37620288Y-38635810D01*
X37810764Y-38945333D02*
X38048859Y-38945333D01*
X37763145Y-39088190D02*
X37929812Y-38588190D01*
X38096478Y-39088190D01*
X38263145Y-39088190D02*
X38263145Y-38588190D01*
X38548859Y-39088190D01*
X38548859Y-38588190D01*
X39167907Y-39088190D02*
X39167907Y-38588190D01*
X39167907Y-38778667D02*
X39215526Y-38754857D01*
X39310764Y-38754857D01*
X39358383Y-38778667D01*
X39382192Y-38802476D01*
X39406002Y-38850095D01*
X39406002Y-38992952D01*
X39382192Y-39040571D01*
X39358383Y-39064381D01*
X39310764Y-39088190D01*
X39215526Y-39088190D01*
X39167907Y-39064381D01*
X39834573Y-38754857D02*
X39834573Y-39088190D01*
X39620288Y-38754857D02*
X39620288Y-39016762D01*
X39644097Y-39064381D01*
X39691716Y-39088190D01*
X39763145Y-39088190D01*
X39810764Y-39064381D01*
X39834573Y-39040571D01*
X40048859Y-39064381D02*
X40096478Y-39088190D01*
X40191716Y-39088190D01*
X40239335Y-39064381D01*
X40263145Y-39016762D01*
X40263145Y-38992952D01*
X40239335Y-38945333D01*
X40191716Y-38921524D01*
X40120288Y-38921524D01*
X40072669Y-38897714D01*
X40048859Y-38850095D01*
X40048859Y-38826286D01*
X40072669Y-38778667D01*
X40120288Y-38754857D01*
X40191716Y-38754857D01*
X40239335Y-38778667D01*
X40786954Y-38754857D02*
X40977430Y-38754857D01*
X40858383Y-38588190D02*
X40858383Y-39016762D01*
X40882192Y-39064381D01*
X40929811Y-39088190D01*
X40977430Y-39088190D01*
X41144097Y-39088190D02*
X41144097Y-38754857D01*
X41144097Y-38850095D02*
X41167906Y-38802476D01*
X41191716Y-38778667D01*
X41239335Y-38754857D01*
X41286954Y-38754857D01*
X41667906Y-39088190D02*
X41667906Y-38826286D01*
X41644097Y-38778667D01*
X41596478Y-38754857D01*
X41501240Y-38754857D01*
X41453621Y-38778667D01*
X41667906Y-39064381D02*
X41620287Y-39088190D01*
X41501240Y-39088190D01*
X41453621Y-39064381D01*
X41429811Y-39016762D01*
X41429811Y-38969143D01*
X41453621Y-38921524D01*
X41501240Y-38897714D01*
X41620287Y-38897714D01*
X41667906Y-38873905D01*
X41906002Y-38754857D02*
X41906002Y-39088190D01*
X41906002Y-38802476D02*
X41929811Y-38778667D01*
X41977430Y-38754857D01*
X42048859Y-38754857D01*
X42096478Y-38778667D01*
X42120287Y-38826286D01*
X42120287Y-39088190D01*
X42334573Y-39064381D02*
X42382192Y-39088190D01*
X42477430Y-39088190D01*
X42525049Y-39064381D01*
X42548859Y-39016762D01*
X42548859Y-38992952D01*
X42525049Y-38945333D01*
X42477430Y-38921524D01*
X42406002Y-38921524D01*
X42358383Y-38897714D01*
X42334573Y-38850095D01*
X42334573Y-38826286D01*
X42358383Y-38778667D01*
X42406002Y-38754857D01*
X42477430Y-38754857D01*
X42525049Y-38778667D01*
X42977430Y-39064381D02*
X42929811Y-39088190D01*
X42834573Y-39088190D01*
X42786954Y-39064381D01*
X42763145Y-39040571D01*
X42739335Y-38992952D01*
X42739335Y-38850095D01*
X42763145Y-38802476D01*
X42786954Y-38778667D01*
X42834573Y-38754857D01*
X42929811Y-38754857D01*
X42977430Y-38778667D01*
X43382192Y-39064381D02*
X43334573Y-39088190D01*
X43239335Y-39088190D01*
X43191716Y-39064381D01*
X43167906Y-39016762D01*
X43167906Y-38826286D01*
X43191716Y-38778667D01*
X43239335Y-38754857D01*
X43334573Y-38754857D01*
X43382192Y-38778667D01*
X43406001Y-38826286D01*
X43406001Y-38873905D01*
X43167906Y-38921524D01*
X43620287Y-39088190D02*
X43620287Y-38754857D01*
X43620287Y-38588190D02*
X43596477Y-38612000D01*
X43620287Y-38635810D01*
X43644096Y-38612000D01*
X43620287Y-38588190D01*
X43620287Y-38635810D01*
X43810763Y-38754857D02*
X43929810Y-39088190D01*
X44048858Y-38754857D01*
X44429810Y-39064381D02*
X44382191Y-39088190D01*
X44286953Y-39088190D01*
X44239334Y-39064381D01*
X44215524Y-39016762D01*
X44215524Y-38826286D01*
X44239334Y-38778667D01*
X44286953Y-38754857D01*
X44382191Y-38754857D01*
X44429810Y-38778667D01*
X44453619Y-38826286D01*
X44453619Y-38873905D01*
X44215524Y-38921524D01*
X44667905Y-39088190D02*
X44667905Y-38754857D01*
X44667905Y-38850095D02*
X44691714Y-38802476D01*
X44715524Y-38778667D01*
X44763143Y-38754857D01*
X44810762Y-38754857D01*
X45310762Y-38754857D02*
X45429809Y-39088190D01*
X45548857Y-38754857D01*
X45715523Y-38635810D02*
X45739333Y-38612000D01*
X45786952Y-38588190D01*
X45905999Y-38588190D01*
X45953618Y-38612000D01*
X45977428Y-38635810D01*
X46001237Y-38683429D01*
X46001237Y-38731048D01*
X45977428Y-38802476D01*
X45691714Y-39088190D01*
X46001237Y-39088190D01*
D12*
X38552857Y-25921857D02*
X38517143Y-25957571D01*
X38410000Y-25993286D01*
X38338571Y-25993286D01*
X38231428Y-25957571D01*
X38160000Y-25886143D01*
X38124285Y-25814714D01*
X38088571Y-25671857D01*
X38088571Y-25564714D01*
X38124285Y-25421857D01*
X38160000Y-25350429D01*
X38231428Y-25279000D01*
X38338571Y-25243286D01*
X38410000Y-25243286D01*
X38517143Y-25279000D01*
X38552857Y-25314714D01*
X38802857Y-25493286D02*
X38981428Y-25993286D01*
X39160000Y-25493286D02*
X38981428Y-25993286D01*
X38910000Y-26171857D01*
X38874285Y-26207571D01*
X38802857Y-26243286D01*
X39445714Y-25993286D02*
X39445714Y-25243286D01*
X39445714Y-25529000D02*
X39517143Y-25493286D01*
X39660000Y-25493286D01*
X39731429Y-25529000D01*
X39767143Y-25564714D01*
X39802857Y-25636143D01*
X39802857Y-25850429D01*
X39767143Y-25921857D01*
X39731429Y-25957571D01*
X39660000Y-25993286D01*
X39517143Y-25993286D01*
X39445714Y-25957571D01*
X40410000Y-25957571D02*
X40338571Y-25993286D01*
X40195714Y-25993286D01*
X40124285Y-25957571D01*
X40088571Y-25886143D01*
X40088571Y-25600429D01*
X40124285Y-25529000D01*
X40195714Y-25493286D01*
X40338571Y-25493286D01*
X40410000Y-25529000D01*
X40445714Y-25600429D01*
X40445714Y-25671857D01*
X40088571Y-25743286D01*
X40767142Y-25993286D02*
X40767142Y-25493286D01*
X40767142Y-25636143D02*
X40802857Y-25564714D01*
X40838571Y-25529000D01*
X40910000Y-25493286D01*
X40981428Y-25493286D01*
X41660000Y-25921857D02*
X41624286Y-25957571D01*
X41517143Y-25993286D01*
X41445714Y-25993286D01*
X41338571Y-25957571D01*
X41267143Y-25886143D01*
X41231428Y-25814714D01*
X41195714Y-25671857D01*
X41195714Y-25564714D01*
X41231428Y-25421857D01*
X41267143Y-25350429D01*
X41338571Y-25279000D01*
X41445714Y-25243286D01*
X41517143Y-25243286D01*
X41624286Y-25279000D01*
X41660000Y-25314714D01*
X42302857Y-25993286D02*
X42302857Y-25600429D01*
X42267143Y-25529000D01*
X42195714Y-25493286D01*
X42052857Y-25493286D01*
X41981428Y-25529000D01*
X42302857Y-25957571D02*
X42231428Y-25993286D01*
X42052857Y-25993286D01*
X41981428Y-25957571D01*
X41945714Y-25886143D01*
X41945714Y-25814714D01*
X41981428Y-25743286D01*
X42052857Y-25707571D01*
X42231428Y-25707571D01*
X42302857Y-25671857D01*
X42659999Y-25993286D02*
X42659999Y-25493286D01*
X42659999Y-25636143D02*
X42695714Y-25564714D01*
X42731428Y-25529000D01*
X42802857Y-25493286D01*
X42874285Y-25493286D01*
X43624286Y-25493286D02*
X43802857Y-25993286D01*
X43981429Y-25493286D01*
X44410001Y-25243286D02*
X44481429Y-25243286D01*
X44552858Y-25279000D01*
X44588572Y-25314714D01*
X44624286Y-25386143D01*
X44660001Y-25529000D01*
X44660001Y-25707571D01*
X44624286Y-25850429D01*
X44588572Y-25921857D01*
X44552858Y-25957571D01*
X44481429Y-25993286D01*
X44410001Y-25993286D01*
X44338572Y-25957571D01*
X44302858Y-25921857D01*
X44267143Y-25850429D01*
X44231429Y-25707571D01*
X44231429Y-25529000D01*
X44267143Y-25386143D01*
X44302858Y-25314714D01*
X44338572Y-25279000D01*
X44410001Y-25243286D01*
X44981429Y-25921857D02*
X45017144Y-25957571D01*
X44981429Y-25993286D01*
X44945715Y-25957571D01*
X44981429Y-25921857D01*
X44981429Y-25993286D01*
X45731430Y-25993286D02*
X45302858Y-25993286D01*
X45517144Y-25993286D02*
X45517144Y-25243286D01*
X45445715Y-25350429D01*
X45374287Y-25421857D01*
X45302858Y-25457571D01*
D13*
X20114000Y-32178000D02*
X20114000Y-24578000D01*
X20114000Y-24578000D02*
X31914000Y-24578000D01*
X31914000Y-24578000D02*
X31914000Y-25778000D01*
X31914000Y-25778000D02*
X27414000Y-25778000D01*
X27414000Y-25778000D02*
X27414000Y-32178000D01*
X20114000Y-32178000D02*
X20114000Y-39778000D01*
X20114000Y-39778000D02*
X31914000Y-39778000D01*
X31914000Y-39778000D02*
X31914000Y-38578000D01*
X31914000Y-38578000D02*
X27414000Y-38578000D01*
X27414000Y-38578000D02*
X27414000Y-32178000D01*
X26764000Y-26928000D02*
X20764000Y-26928000D01*
X20764000Y-26928000D02*
X20764000Y-27428000D01*
X20764000Y-27428000D02*
X26764000Y-27428000D01*
X26764000Y-27428000D02*
X26764000Y-26928000D01*
X26764000Y-29428000D02*
X20764000Y-29428000D01*
X20764000Y-29428000D02*
X20764000Y-29928000D01*
X20764000Y-29928000D02*
X26764000Y-29928000D01*
X26764000Y-29928000D02*
X26764000Y-29428000D01*
X26764000Y-31928000D02*
X20764000Y-31928000D01*
X20764000Y-31928000D02*
X20764000Y-32428000D01*
X20764000Y-32428000D02*
X26764000Y-32428000D01*
X26764000Y-32428000D02*
X26764000Y-31928000D01*
X26764000Y-34428000D02*
X20764000Y-34428000D01*
X20764000Y-34428000D02*
X20764000Y-34928000D01*
X20764000Y-34928000D02*
X26764000Y-34928000D01*
X26764000Y-34928000D02*
X26764000Y-34428000D01*
X26764000Y-36928000D02*
X20764000Y-36928000D01*
X20764000Y-36928000D02*
X20764000Y-37428000D01*
X20764000Y-37428000D02*
X26764000Y-37428000D01*
X26764000Y-37428000D02*
X26764000Y-36928000D01*
X30964000Y-27178000D02*
X31564000Y-26878000D01*
X31564000Y-26878000D02*
X31564000Y-27478000D01*
X31564000Y-27478000D02*
X30964000Y-27178000D01*
X54054000Y-32278000D02*
X54054000Y-36128000D01*
X54054000Y-36128000D02*
X42254000Y-36128000D01*
X42254000Y-36128000D02*
X42254000Y-34928000D01*
X42254000Y-34928000D02*
X46754000Y-34928000D01*
X46754000Y-34928000D02*
X46754000Y-32278000D01*
X54054000Y-32278000D02*
X54054000Y-28428000D01*
X54054000Y-28428000D02*
X42254000Y-28428000D01*
X42254000Y-28428000D02*
X42254000Y-29628000D01*
X42254000Y-29628000D02*
X46754000Y-29628000D01*
X46754000Y-29628000D02*
X46754000Y-32278000D01*
X47404000Y-33778000D02*
X53404000Y-33778000D01*
X53404000Y-33778000D02*
X53404000Y-33278000D01*
X53404000Y-33278000D02*
X47404000Y-33278000D01*
X47404000Y-33278000D02*
X47404000Y-33778000D01*
X47404000Y-31278000D02*
X53404000Y-31278000D01*
X53404000Y-31278000D02*
X53404000Y-30778000D01*
X53404000Y-30778000D02*
X47404000Y-30778000D01*
X47404000Y-30778000D02*
X47404000Y-31278000D01*
X43204000Y-33528000D02*
X42604000Y-33828000D01*
X42604000Y-33828000D02*
X42604000Y-33228000D01*
X42604000Y-33228000D02*
X43204000Y-33528000D01*
X35644000Y-29683000D02*
X35644000Y-29733000D01*
X39794000Y-29683000D02*
X39794000Y-29828000D01*
X39794000Y-34833000D02*
X39794000Y-34688000D01*
X35644000Y-34833000D02*
X35644000Y-34688000D01*
X35644000Y-29683000D02*
X39794000Y-29683000D01*
X35644000Y-34833000D02*
X39794000Y-34833000D01*
X35644000Y-29733000D02*
X34244000Y-29733000D01*
%LPC*%
D14*
X29464000Y-27178000D03*
D15*
X29464000Y-29678000D03*
X29464000Y-32178000D03*
X29464000Y-34678000D03*
X29464000Y-37178000D03*
D14*
X44704000Y-33528000D03*
D15*
X44704000Y-31028000D03*
D16*
X35019000Y-30353000D03*
X35019000Y-31623000D03*
X35019000Y-32893000D03*
X35019000Y-34163000D03*
X40419000Y-34163000D03*
X40419000Y-32893000D03*
X40419000Y-31623000D03*
X40419000Y-30353000D03*
M02*
