G04 #@! TF.FileFunction,Legend,Top*
%FSLAX45Y45*%
G04 Gerber Fmt 4.5, Leading zero omitted, Abs format (unit mm)*
G04 Created by KiCad (PCBNEW 4.0.4-stable) date Sat Oct 15 01:23:03 2016*
%MOMM*%
%LPD*%
G01*
G04 APERTURE LIST*
%ADD10C,0.100000*%
%ADD11C,0.150000*%
G04 APERTURE END LIST*
D10*
X3480486Y-3909771D02*
X3477343Y-3912914D01*
X3467914Y-3916057D01*
X3461629Y-3916057D01*
X3452200Y-3912914D01*
X3445914Y-3906629D01*
X3442771Y-3900343D01*
X3439629Y-3887771D01*
X3439629Y-3878343D01*
X3442771Y-3865771D01*
X3445914Y-3859486D01*
X3452200Y-3853200D01*
X3461629Y-3850057D01*
X3467914Y-3850057D01*
X3477343Y-3853200D01*
X3480486Y-3856343D01*
X3505629Y-3897200D02*
X3537057Y-3897200D01*
X3499343Y-3916057D02*
X3521343Y-3850057D01*
X3543343Y-3916057D01*
X3565343Y-3916057D02*
X3565343Y-3850057D01*
X3603057Y-3916057D01*
X3603057Y-3850057D01*
X3684771Y-3916057D02*
X3684771Y-3850057D01*
X3684771Y-3875200D02*
X3691057Y-3872057D01*
X3703629Y-3872057D01*
X3709914Y-3875200D01*
X3713057Y-3878343D01*
X3716200Y-3884629D01*
X3716200Y-3903486D01*
X3713057Y-3909771D01*
X3709914Y-3912914D01*
X3703629Y-3916057D01*
X3691057Y-3916057D01*
X3684771Y-3912914D01*
X3772771Y-3872057D02*
X3772771Y-3916057D01*
X3744486Y-3872057D02*
X3744486Y-3906629D01*
X3747629Y-3912914D01*
X3753914Y-3916057D01*
X3763343Y-3916057D01*
X3769629Y-3912914D01*
X3772771Y-3909771D01*
X3801057Y-3912914D02*
X3807343Y-3916057D01*
X3819914Y-3916057D01*
X3826200Y-3912914D01*
X3829343Y-3906629D01*
X3829343Y-3903486D01*
X3826200Y-3897200D01*
X3819914Y-3894057D01*
X3810486Y-3894057D01*
X3804200Y-3890914D01*
X3801057Y-3884629D01*
X3801057Y-3881486D01*
X3804200Y-3875200D01*
X3810486Y-3872057D01*
X3819914Y-3872057D01*
X3826200Y-3875200D01*
X3898486Y-3872057D02*
X3923629Y-3872057D01*
X3907914Y-3850057D02*
X3907914Y-3906629D01*
X3911057Y-3912914D01*
X3917343Y-3916057D01*
X3923629Y-3916057D01*
X3945629Y-3916057D02*
X3945629Y-3872057D01*
X3945629Y-3884629D02*
X3948771Y-3878343D01*
X3951914Y-3875200D01*
X3958200Y-3872057D01*
X3964486Y-3872057D01*
X4014771Y-3916057D02*
X4014771Y-3881486D01*
X4011629Y-3875200D01*
X4005343Y-3872057D01*
X3992771Y-3872057D01*
X3986486Y-3875200D01*
X4014771Y-3912914D02*
X4008486Y-3916057D01*
X3992771Y-3916057D01*
X3986486Y-3912914D01*
X3983343Y-3906629D01*
X3983343Y-3900343D01*
X3986486Y-3894057D01*
X3992771Y-3890914D01*
X4008486Y-3890914D01*
X4014771Y-3887771D01*
X4046200Y-3872057D02*
X4046200Y-3916057D01*
X4046200Y-3878343D02*
X4049343Y-3875200D01*
X4055629Y-3872057D01*
X4065057Y-3872057D01*
X4071343Y-3875200D01*
X4074486Y-3881486D01*
X4074486Y-3916057D01*
X4102771Y-3912914D02*
X4109057Y-3916057D01*
X4121629Y-3916057D01*
X4127914Y-3912914D01*
X4131057Y-3906629D01*
X4131057Y-3903486D01*
X4127914Y-3897200D01*
X4121629Y-3894057D01*
X4112200Y-3894057D01*
X4105914Y-3890914D01*
X4102771Y-3884629D01*
X4102771Y-3881486D01*
X4105914Y-3875200D01*
X4112200Y-3872057D01*
X4121629Y-3872057D01*
X4127914Y-3875200D01*
X4187629Y-3912914D02*
X4181343Y-3916057D01*
X4168772Y-3916057D01*
X4162486Y-3912914D01*
X4159343Y-3909771D01*
X4156200Y-3903486D01*
X4156200Y-3884629D01*
X4159343Y-3878343D01*
X4162486Y-3875200D01*
X4168772Y-3872057D01*
X4181343Y-3872057D01*
X4187629Y-3875200D01*
X4241057Y-3912914D02*
X4234772Y-3916057D01*
X4222200Y-3916057D01*
X4215914Y-3912914D01*
X4212772Y-3906629D01*
X4212772Y-3881486D01*
X4215914Y-3875200D01*
X4222200Y-3872057D01*
X4234772Y-3872057D01*
X4241057Y-3875200D01*
X4244200Y-3881486D01*
X4244200Y-3887771D01*
X4212772Y-3894057D01*
X4272486Y-3916057D02*
X4272486Y-3872057D01*
X4272486Y-3850057D02*
X4269343Y-3853200D01*
X4272486Y-3856343D01*
X4275629Y-3853200D01*
X4272486Y-3850057D01*
X4272486Y-3856343D01*
X4297629Y-3872057D02*
X4313343Y-3916057D01*
X4329057Y-3872057D01*
X4379343Y-3912914D02*
X4373057Y-3916057D01*
X4360486Y-3916057D01*
X4354200Y-3912914D01*
X4351057Y-3906629D01*
X4351057Y-3881486D01*
X4354200Y-3875200D01*
X4360486Y-3872057D01*
X4373057Y-3872057D01*
X4379343Y-3875200D01*
X4382486Y-3881486D01*
X4382486Y-3887771D01*
X4351057Y-3894057D01*
X4410772Y-3916057D02*
X4410772Y-3872057D01*
X4410772Y-3884629D02*
X4413914Y-3878343D01*
X4417057Y-3875200D01*
X4423343Y-3872057D01*
X4429629Y-3872057D01*
X4495629Y-3872057D02*
X4511343Y-3916057D01*
X4527057Y-3872057D01*
X4549057Y-3856343D02*
X4552200Y-3853200D01*
X4558486Y-3850057D01*
X4574200Y-3850057D01*
X4580486Y-3853200D01*
X4583629Y-3856343D01*
X4586771Y-3862629D01*
X4586771Y-3868914D01*
X4583629Y-3878343D01*
X4545914Y-3916057D01*
X4586771Y-3916057D01*
D11*
X3855286Y-2592186D02*
X3851714Y-2595757D01*
X3841000Y-2599329D01*
X3833857Y-2599329D01*
X3823143Y-2595757D01*
X3816000Y-2588614D01*
X3812428Y-2581471D01*
X3808857Y-2567186D01*
X3808857Y-2556471D01*
X3812428Y-2542186D01*
X3816000Y-2535043D01*
X3823143Y-2527900D01*
X3833857Y-2524329D01*
X3841000Y-2524329D01*
X3851714Y-2527900D01*
X3855286Y-2531471D01*
X3880286Y-2549329D02*
X3898143Y-2599329D01*
X3916000Y-2549329D02*
X3898143Y-2599329D01*
X3891000Y-2617186D01*
X3887428Y-2620757D01*
X3880286Y-2624329D01*
X3944571Y-2599329D02*
X3944571Y-2524329D01*
X3944571Y-2552900D02*
X3951714Y-2549329D01*
X3966000Y-2549329D01*
X3973143Y-2552900D01*
X3976714Y-2556471D01*
X3980286Y-2563614D01*
X3980286Y-2585043D01*
X3976714Y-2592186D01*
X3973143Y-2595757D01*
X3966000Y-2599329D01*
X3951714Y-2599329D01*
X3944571Y-2595757D01*
X4041000Y-2595757D02*
X4033857Y-2599329D01*
X4019571Y-2599329D01*
X4012428Y-2595757D01*
X4008857Y-2588614D01*
X4008857Y-2560043D01*
X4012428Y-2552900D01*
X4019571Y-2549329D01*
X4033857Y-2549329D01*
X4041000Y-2552900D01*
X4044571Y-2560043D01*
X4044571Y-2567186D01*
X4008857Y-2574329D01*
X4076714Y-2599329D02*
X4076714Y-2549329D01*
X4076714Y-2563614D02*
X4080286Y-2556471D01*
X4083857Y-2552900D01*
X4091000Y-2549329D01*
X4098143Y-2549329D01*
X4166000Y-2592186D02*
X4162429Y-2595757D01*
X4151714Y-2599329D01*
X4144571Y-2599329D01*
X4133857Y-2595757D01*
X4126714Y-2588614D01*
X4123143Y-2581471D01*
X4119571Y-2567186D01*
X4119571Y-2556471D01*
X4123143Y-2542186D01*
X4126714Y-2535043D01*
X4133857Y-2527900D01*
X4144571Y-2524329D01*
X4151714Y-2524329D01*
X4162429Y-2527900D01*
X4166000Y-2531471D01*
X4230286Y-2599329D02*
X4230286Y-2560043D01*
X4226714Y-2552900D01*
X4219571Y-2549329D01*
X4205286Y-2549329D01*
X4198143Y-2552900D01*
X4230286Y-2595757D02*
X4223143Y-2599329D01*
X4205286Y-2599329D01*
X4198143Y-2595757D01*
X4194571Y-2588614D01*
X4194571Y-2581471D01*
X4198143Y-2574329D01*
X4205286Y-2570757D01*
X4223143Y-2570757D01*
X4230286Y-2567186D01*
X4266000Y-2599329D02*
X4266000Y-2549329D01*
X4266000Y-2563614D02*
X4269571Y-2556471D01*
X4273143Y-2552900D01*
X4280286Y-2549329D01*
X4287429Y-2549329D01*
X4362429Y-2549329D02*
X4380286Y-2599329D01*
X4398143Y-2549329D01*
X4441000Y-2524329D02*
X4448143Y-2524329D01*
X4455286Y-2527900D01*
X4458857Y-2531471D01*
X4462429Y-2538614D01*
X4466000Y-2552900D01*
X4466000Y-2570757D01*
X4462429Y-2585043D01*
X4458857Y-2592186D01*
X4455286Y-2595757D01*
X4448143Y-2599329D01*
X4441000Y-2599329D01*
X4433857Y-2595757D01*
X4430286Y-2592186D01*
X4426714Y-2585043D01*
X4423143Y-2570757D01*
X4423143Y-2552900D01*
X4426714Y-2538614D01*
X4430286Y-2531471D01*
X4433857Y-2527900D01*
X4441000Y-2524329D01*
X4498143Y-2592186D02*
X4501714Y-2595757D01*
X4498143Y-2599329D01*
X4494572Y-2595757D01*
X4498143Y-2592186D01*
X4498143Y-2599329D01*
X4573143Y-2599329D02*
X4530286Y-2599329D01*
X4551714Y-2599329D02*
X4551714Y-2524329D01*
X4544572Y-2535043D01*
X4537429Y-2542186D01*
X4530286Y-2545757D01*
X2011400Y-3217800D02*
X2011400Y-2457800D01*
X2011400Y-2457800D02*
X3191400Y-2457800D01*
X3191400Y-2457800D02*
X3191400Y-2577800D01*
X3191400Y-2577800D02*
X2741400Y-2577800D01*
X2741400Y-2577800D02*
X2741400Y-3217800D01*
X2011400Y-3217800D02*
X2011400Y-3977800D01*
X2011400Y-3977800D02*
X3191400Y-3977800D01*
X3191400Y-3977800D02*
X3191400Y-3857800D01*
X3191400Y-3857800D02*
X2741400Y-3857800D01*
X2741400Y-3857800D02*
X2741400Y-3217800D01*
X2676400Y-2692800D02*
X2076400Y-2692800D01*
X2076400Y-2692800D02*
X2076400Y-2742800D01*
X2076400Y-2742800D02*
X2676400Y-2742800D01*
X2676400Y-2742800D02*
X2676400Y-2692800D01*
X2676400Y-2942800D02*
X2076400Y-2942800D01*
X2076400Y-2942800D02*
X2076400Y-2992800D01*
X2076400Y-2992800D02*
X2676400Y-2992800D01*
X2676400Y-2992800D02*
X2676400Y-2942800D01*
X2676400Y-3192800D02*
X2076400Y-3192800D01*
X2076400Y-3192800D02*
X2076400Y-3242800D01*
X2076400Y-3242800D02*
X2676400Y-3242800D01*
X2676400Y-3242800D02*
X2676400Y-3192800D01*
X2676400Y-3442800D02*
X2076400Y-3442800D01*
X2076400Y-3442800D02*
X2076400Y-3492800D01*
X2076400Y-3492800D02*
X2676400Y-3492800D01*
X2676400Y-3492800D02*
X2676400Y-3442800D01*
X2676400Y-3692800D02*
X2076400Y-3692800D01*
X2076400Y-3692800D02*
X2076400Y-3742800D01*
X2076400Y-3742800D02*
X2676400Y-3742800D01*
X2676400Y-3742800D02*
X2676400Y-3692800D01*
X3096400Y-2717800D02*
X3156400Y-2687800D01*
X3156400Y-2687800D02*
X3156400Y-2747800D01*
X3156400Y-2747800D02*
X3096400Y-2717800D01*
X5405400Y-3227800D02*
X5405400Y-3612800D01*
X5405400Y-3612800D02*
X4225400Y-3612800D01*
X4225400Y-3612800D02*
X4225400Y-3492800D01*
X4225400Y-3492800D02*
X4675400Y-3492800D01*
X4675400Y-3492800D02*
X4675400Y-3227800D01*
X5405400Y-3227800D02*
X5405400Y-2842800D01*
X5405400Y-2842800D02*
X4225400Y-2842800D01*
X4225400Y-2842800D02*
X4225400Y-2962800D01*
X4225400Y-2962800D02*
X4675400Y-2962800D01*
X4675400Y-2962800D02*
X4675400Y-3227800D01*
X4740400Y-3377800D02*
X5340400Y-3377800D01*
X5340400Y-3377800D02*
X5340400Y-3327800D01*
X5340400Y-3327800D02*
X4740400Y-3327800D01*
X4740400Y-3327800D02*
X4740400Y-3377800D01*
X4740400Y-3127800D02*
X5340400Y-3127800D01*
X5340400Y-3127800D02*
X5340400Y-3077800D01*
X5340400Y-3077800D02*
X4740400Y-3077800D01*
X4740400Y-3077800D02*
X4740400Y-3127800D01*
X4320400Y-3352800D02*
X4260400Y-3382800D01*
X4260400Y-3382800D02*
X4260400Y-3322800D01*
X4260400Y-3322800D02*
X4320400Y-3352800D01*
X3564400Y-2968300D02*
X3564400Y-2973300D01*
X3979400Y-2968300D02*
X3979400Y-2982800D01*
X3979400Y-3483300D02*
X3979400Y-3468800D01*
X3564400Y-3483300D02*
X3564400Y-3468800D01*
X3564400Y-2968300D02*
X3979400Y-2968300D01*
X3564400Y-3483300D02*
X3979400Y-3483300D01*
X3564400Y-2973300D02*
X3424400Y-2973300D01*
X3253590Y-2610638D02*
X3253590Y-2510638D01*
X3291686Y-2510638D01*
X3301210Y-2515400D01*
X3305971Y-2520162D01*
X3310733Y-2529686D01*
X3310733Y-2543971D01*
X3305971Y-2553495D01*
X3301210Y-2558257D01*
X3291686Y-2563019D01*
X3253590Y-2563019D01*
X3405971Y-2610638D02*
X3348829Y-2610638D01*
X3377400Y-2610638D02*
X3377400Y-2510638D01*
X3367876Y-2524924D01*
X3358352Y-2534448D01*
X3348829Y-2539210D01*
X4206091Y-2763038D02*
X4206091Y-2663038D01*
X4244186Y-2663038D01*
X4253710Y-2667800D01*
X4258472Y-2672562D01*
X4263233Y-2682086D01*
X4263233Y-2696371D01*
X4258472Y-2705895D01*
X4253710Y-2710657D01*
X4244186Y-2715419D01*
X4206091Y-2715419D01*
X4301329Y-2672562D02*
X4306091Y-2667800D01*
X4315614Y-2663038D01*
X4339424Y-2663038D01*
X4348948Y-2667800D01*
X4353710Y-2672562D01*
X4358472Y-2682086D01*
X4358472Y-2691610D01*
X4353710Y-2705895D01*
X4296567Y-2763038D01*
X4358472Y-2763038D01*
X3886209Y-2790038D02*
X3886209Y-2870990D01*
X3890971Y-2880514D01*
X3895733Y-2885276D01*
X3905257Y-2890038D01*
X3924305Y-2890038D01*
X3933829Y-2885276D01*
X3938590Y-2880514D01*
X3943352Y-2870990D01*
X3943352Y-2790038D01*
X4043352Y-2890038D02*
X3986209Y-2890038D01*
X4014781Y-2890038D02*
X4014781Y-2790038D01*
X4005257Y-2804324D01*
X3995733Y-2813848D01*
X3986209Y-2818609D01*
M02*
