M48
;DRILL file {KiCad 4.0.4-stable} date Sat Oct 29 12:27:27 2016
;FORMAT={3:3/ absolute / metric / suppress trailing zeros}
FMAT,2
METRIC,LZ
T1C0.400
T2C0.900
T3C1.016
%
G90
G05
M71
T1
X085852Y-094996
X0889Y-094488
X090805Y-094615
X092075Y-10033
X097536Y-099568
X09906Y-09652
X102235Y-094615
X103505Y-10033
X10414Y-103505
X104775Y-09779
X107188Y-1016
X108585Y-10287
T2
X095925Y-092075
X098425Y-092075
T3
X083185Y-09144
X083185Y-09398
X083185Y-09652
X083185Y-09906
X083185Y-1016
X083185Y-10414
X111125Y-09144
X111125Y-09398
X111125Y-09652
X111125Y-09906
X111125Y-1016
X111125Y-10414
T0
M30
