G04 #@! TF.FileFunction,Legend,Bot*
%FSLAX45Y45*%
G04 Gerber Fmt 4.5, Leading zero omitted, Abs format (unit mm)*
G04 Created by KiCad (PCBNEW 4.0.4-stable) date Sat Oct 29 12:27:33 2016*
%MOMM*%
%LPD*%
G01*
G04 APERTURE LIST*
%ADD10C,0.100000*%
G04 APERTURE END LIST*
D10*
X10596847Y-10482657D02*
X10599228Y-10485038D01*
X10606371Y-10487419D01*
X10611133Y-10487419D01*
X10618276Y-10485038D01*
X10623038Y-10480276D01*
X10625419Y-10475514D01*
X10627800Y-10465991D01*
X10627800Y-10458848D01*
X10625419Y-10449324D01*
X10623038Y-10444562D01*
X10618276Y-10439800D01*
X10611133Y-10437419D01*
X10606371Y-10437419D01*
X10599228Y-10439800D01*
X10596847Y-10442181D01*
X10577800Y-10473133D02*
X10553990Y-10473133D01*
X10582562Y-10487419D02*
X10565895Y-10437419D01*
X10549228Y-10487419D01*
X10532562Y-10487419D02*
X10532562Y-10437419D01*
X10503990Y-10487419D01*
X10503990Y-10437419D01*
X10442085Y-10487419D02*
X10442085Y-10437419D01*
X10442085Y-10456467D02*
X10437323Y-10454086D01*
X10427800Y-10454086D01*
X10423038Y-10456467D01*
X10420657Y-10458848D01*
X10418276Y-10463610D01*
X10418276Y-10477895D01*
X10420657Y-10482657D01*
X10423038Y-10485038D01*
X10427800Y-10487419D01*
X10437323Y-10487419D01*
X10442085Y-10485038D01*
X10375419Y-10454086D02*
X10375419Y-10487419D01*
X10396847Y-10454086D02*
X10396847Y-10480276D01*
X10394466Y-10485038D01*
X10389704Y-10487419D01*
X10382562Y-10487419D01*
X10377800Y-10485038D01*
X10375419Y-10482657D01*
X10353990Y-10485038D02*
X10349228Y-10487419D01*
X10339704Y-10487419D01*
X10334943Y-10485038D01*
X10332562Y-10480276D01*
X10332562Y-10477895D01*
X10334943Y-10473133D01*
X10339704Y-10470752D01*
X10346847Y-10470752D01*
X10351609Y-10468371D01*
X10353990Y-10463610D01*
X10353990Y-10461229D01*
X10351609Y-10456467D01*
X10346847Y-10454086D01*
X10339704Y-10454086D01*
X10334943Y-10456467D01*
X10280181Y-10454086D02*
X10261133Y-10454086D01*
X10273038Y-10437419D02*
X10273038Y-10480276D01*
X10270657Y-10485038D01*
X10265895Y-10487419D01*
X10261133Y-10487419D01*
X10244466Y-10487419D02*
X10244466Y-10454086D01*
X10244466Y-10463610D02*
X10242085Y-10458848D01*
X10239704Y-10456467D01*
X10234943Y-10454086D01*
X10230181Y-10454086D01*
X10192085Y-10487419D02*
X10192085Y-10461229D01*
X10194466Y-10456467D01*
X10199228Y-10454086D01*
X10208752Y-10454086D01*
X10213514Y-10456467D01*
X10192085Y-10485038D02*
X10196847Y-10487419D01*
X10208752Y-10487419D01*
X10213514Y-10485038D01*
X10215895Y-10480276D01*
X10215895Y-10475514D01*
X10213514Y-10470752D01*
X10208752Y-10468371D01*
X10196847Y-10468371D01*
X10192085Y-10465991D01*
X10168276Y-10454086D02*
X10168276Y-10487419D01*
X10168276Y-10458848D02*
X10165895Y-10456467D01*
X10161133Y-10454086D01*
X10153990Y-10454086D01*
X10149228Y-10456467D01*
X10146847Y-10461229D01*
X10146847Y-10487419D01*
X10125419Y-10485038D02*
X10120657Y-10487419D01*
X10111133Y-10487419D01*
X10106371Y-10485038D01*
X10103990Y-10480276D01*
X10103990Y-10477895D01*
X10106371Y-10473133D01*
X10111133Y-10470752D01*
X10118276Y-10470752D01*
X10123038Y-10468371D01*
X10125419Y-10463610D01*
X10125419Y-10461229D01*
X10123038Y-10456467D01*
X10118276Y-10454086D01*
X10111133Y-10454086D01*
X10106371Y-10456467D01*
X10061133Y-10485038D02*
X10065895Y-10487419D01*
X10075419Y-10487419D01*
X10080181Y-10485038D01*
X10082562Y-10482657D01*
X10084943Y-10477895D01*
X10084943Y-10463610D01*
X10082562Y-10458848D01*
X10080181Y-10456467D01*
X10075419Y-10454086D01*
X10065895Y-10454086D01*
X10061133Y-10456467D01*
X10020657Y-10485038D02*
X10025419Y-10487419D01*
X10034943Y-10487419D01*
X10039704Y-10485038D01*
X10042085Y-10480276D01*
X10042085Y-10461229D01*
X10039704Y-10456467D01*
X10034943Y-10454086D01*
X10025419Y-10454086D01*
X10020657Y-10456467D01*
X10018276Y-10461229D01*
X10018276Y-10465991D01*
X10042085Y-10470752D01*
X9996847Y-10487419D02*
X9996847Y-10454086D01*
X9996847Y-10437419D02*
X9999228Y-10439800D01*
X9996847Y-10442181D01*
X9994466Y-10439800D01*
X9996847Y-10437419D01*
X9996847Y-10442181D01*
X9977800Y-10454086D02*
X9965895Y-10487419D01*
X9953990Y-10454086D01*
X9915895Y-10485038D02*
X9920657Y-10487419D01*
X9930181Y-10487419D01*
X9934943Y-10485038D01*
X9937324Y-10480276D01*
X9937324Y-10461229D01*
X9934943Y-10456467D01*
X9930181Y-10454086D01*
X9920657Y-10454086D01*
X9915895Y-10456467D01*
X9913514Y-10461229D01*
X9913514Y-10465991D01*
X9937324Y-10470752D01*
X9892086Y-10487419D02*
X9892086Y-10454086D01*
X9892086Y-10463610D02*
X9889705Y-10458848D01*
X9887324Y-10456467D01*
X9882562Y-10454086D01*
X9877800Y-10454086D01*
X9825419Y-10485038D02*
X9820657Y-10487419D01*
X9811133Y-10487419D01*
X9806371Y-10485038D01*
X9803990Y-10480276D01*
X9803990Y-10477895D01*
X9806371Y-10473133D01*
X9811133Y-10470752D01*
X9818276Y-10470752D01*
X9823038Y-10468371D01*
X9825419Y-10463610D01*
X9825419Y-10461229D01*
X9823038Y-10456467D01*
X9818276Y-10454086D01*
X9811133Y-10454086D01*
X9806371Y-10456467D01*
X9782562Y-10487419D02*
X9782562Y-10437419D01*
X9761133Y-10487419D02*
X9761133Y-10461229D01*
X9763514Y-10456467D01*
X9768276Y-10454086D01*
X9775419Y-10454086D01*
X9780181Y-10456467D01*
X9782562Y-10458848D01*
X9737324Y-10487419D02*
X9737324Y-10454086D01*
X9737324Y-10437419D02*
X9739705Y-10439800D01*
X9737324Y-10442181D01*
X9734943Y-10439800D01*
X9737324Y-10437419D01*
X9737324Y-10442181D01*
X9694467Y-10485038D02*
X9699228Y-10487419D01*
X9708752Y-10487419D01*
X9713514Y-10485038D01*
X9715895Y-10480276D01*
X9715895Y-10461229D01*
X9713514Y-10456467D01*
X9708752Y-10454086D01*
X9699228Y-10454086D01*
X9694467Y-10456467D01*
X9692086Y-10461229D01*
X9692086Y-10465991D01*
X9715895Y-10470752D01*
X9663514Y-10487419D02*
X9668276Y-10485038D01*
X9670657Y-10480276D01*
X9670657Y-10437419D01*
X9623038Y-10487419D02*
X9623038Y-10437419D01*
X9623038Y-10485038D02*
X9627800Y-10487419D01*
X9637324Y-10487419D01*
X9642086Y-10485038D01*
X9644467Y-10482657D01*
X9646848Y-10477895D01*
X9646848Y-10463610D01*
X9644467Y-10458848D01*
X9642086Y-10456467D01*
X9637324Y-10454086D01*
X9627800Y-10454086D01*
X9623038Y-10456467D01*
X9565895Y-10454086D02*
X9553990Y-10487419D01*
X9542086Y-10454086D01*
X9525419Y-10442181D02*
X9523038Y-10439800D01*
X9518276Y-10437419D01*
X9506371Y-10437419D01*
X9501610Y-10439800D01*
X9499229Y-10442181D01*
X9496848Y-10446943D01*
X9496848Y-10451705D01*
X9499229Y-10458848D01*
X9527800Y-10487419D01*
X9496848Y-10487419D01*
X9444467Y-10454086D02*
X9425419Y-10454086D01*
X9437324Y-10487419D02*
X9437324Y-10444562D01*
X9434943Y-10439800D01*
X9430181Y-10437419D01*
X9425419Y-10437419D01*
X9401610Y-10487419D02*
X9406372Y-10485038D01*
X9408752Y-10482657D01*
X9411133Y-10477895D01*
X9411133Y-10463610D01*
X9408752Y-10458848D01*
X9406372Y-10456467D01*
X9401610Y-10454086D01*
X9394467Y-10454086D01*
X9389705Y-10456467D01*
X9387324Y-10458848D01*
X9384943Y-10463610D01*
X9384943Y-10477895D01*
X9387324Y-10482657D01*
X9389705Y-10485038D01*
X9394467Y-10487419D01*
X9401610Y-10487419D01*
X9363514Y-10487419D02*
X9363514Y-10454086D01*
X9363514Y-10463610D02*
X9361133Y-10458848D01*
X9358752Y-10456467D01*
X9353991Y-10454086D01*
X9349229Y-10454086D01*
X9294467Y-10487419D02*
X9294467Y-10437419D01*
X9275419Y-10437419D01*
X9270657Y-10439800D01*
X9268276Y-10442181D01*
X9265895Y-10446943D01*
X9265895Y-10454086D01*
X9268276Y-10458848D01*
X9270657Y-10461229D01*
X9275419Y-10463610D01*
X9294467Y-10463610D01*
X9249229Y-10454086D02*
X9237324Y-10487419D01*
X9225419Y-10454086D02*
X9237324Y-10487419D01*
X9242086Y-10499324D01*
X9244467Y-10501705D01*
X9249229Y-10504086D01*
X9189705Y-10461229D02*
X9182562Y-10463610D01*
X9180181Y-10465991D01*
X9177800Y-10470752D01*
X9177800Y-10477895D01*
X9180181Y-10482657D01*
X9182562Y-10485038D01*
X9187324Y-10487419D01*
X9206372Y-10487419D01*
X9206372Y-10437419D01*
X9189705Y-10437419D01*
X9184943Y-10439800D01*
X9182562Y-10442181D01*
X9180181Y-10446943D01*
X9180181Y-10451705D01*
X9182562Y-10456467D01*
X9184943Y-10458848D01*
X9189705Y-10461229D01*
X9206372Y-10461229D01*
X9149229Y-10487419D02*
X9153991Y-10485038D01*
X9156372Y-10482657D01*
X9158753Y-10477895D01*
X9158753Y-10463610D01*
X9156372Y-10458848D01*
X9153991Y-10456467D01*
X9149229Y-10454086D01*
X9142086Y-10454086D01*
X9137324Y-10456467D01*
X9134943Y-10458848D01*
X9132562Y-10463610D01*
X9132562Y-10477895D01*
X9134943Y-10482657D01*
X9137324Y-10485038D01*
X9142086Y-10487419D01*
X9149229Y-10487419D01*
X9089705Y-10487419D02*
X9089705Y-10461229D01*
X9092086Y-10456467D01*
X9096848Y-10454086D01*
X9106372Y-10454086D01*
X9111133Y-10456467D01*
X9089705Y-10485038D02*
X9094467Y-10487419D01*
X9106372Y-10487419D01*
X9111133Y-10485038D01*
X9113514Y-10480276D01*
X9113514Y-10475514D01*
X9111133Y-10470752D01*
X9106372Y-10468371D01*
X9094467Y-10468371D01*
X9089705Y-10465991D01*
X9065895Y-10487419D02*
X9065895Y-10454086D01*
X9065895Y-10463610D02*
X9063514Y-10458848D01*
X9061133Y-10456467D01*
X9056372Y-10454086D01*
X9051610Y-10454086D01*
X9013514Y-10487419D02*
X9013514Y-10437419D01*
X9013514Y-10485038D02*
X9018276Y-10487419D01*
X9027800Y-10487419D01*
X9032562Y-10485038D01*
X9034943Y-10482657D01*
X9037324Y-10477895D01*
X9037324Y-10463610D01*
X9034943Y-10458848D01*
X9032562Y-10456467D01*
X9027800Y-10454086D01*
X9018276Y-10454086D01*
X9013514Y-10456467D01*
X8956372Y-10454086D02*
X8944467Y-10487419D01*
X8932562Y-10454086D01*
X8849229Y-10487419D02*
X8877800Y-10487419D01*
X8863515Y-10487419D02*
X8863515Y-10437419D01*
X8868276Y-10444562D01*
X8873038Y-10449324D01*
X8877800Y-10451705D01*
X8827800Y-10482657D02*
X8825419Y-10485038D01*
X8827800Y-10487419D01*
X8830181Y-10485038D01*
X8827800Y-10482657D01*
X8827800Y-10487419D01*
X8777800Y-10487419D02*
X8806372Y-10487419D01*
X8792086Y-10487419D02*
X8792086Y-10437419D01*
X8796848Y-10444562D01*
X8801610Y-10449324D01*
X8806372Y-10451705D01*
X10957867Y-9359667D02*
X10914533Y-9359667D01*
X10937867Y-9386333D01*
X10927867Y-9386333D01*
X10921200Y-9389667D01*
X10917867Y-9393000D01*
X10914533Y-9399667D01*
X10914533Y-9416333D01*
X10917867Y-9423000D01*
X10921200Y-9426333D01*
X10927867Y-9429667D01*
X10947867Y-9429667D01*
X10954533Y-9426333D01*
X10957867Y-9423000D01*
X10894533Y-9359667D02*
X10871200Y-9429667D01*
X10847867Y-9359667D01*
X10831200Y-9359667D02*
X10787867Y-9359667D01*
X10811200Y-9386333D01*
X10801200Y-9386333D01*
X10794533Y-9389667D01*
X10791200Y-9393000D01*
X10787867Y-9399667D01*
X10787867Y-9416333D01*
X10791200Y-9423000D01*
X10794533Y-9426333D01*
X10801200Y-9429667D01*
X10821200Y-9429667D01*
X10827867Y-9426333D01*
X10831200Y-9423000D01*
X10924533Y-9617000D02*
X10931200Y-9613667D01*
X10941200Y-9613667D01*
X10951200Y-9617000D01*
X10957867Y-9623667D01*
X10961200Y-9630333D01*
X10964533Y-9643667D01*
X10964533Y-9653667D01*
X10961200Y-9667000D01*
X10957867Y-9673667D01*
X10951200Y-9680333D01*
X10941200Y-9683667D01*
X10934533Y-9683667D01*
X10924533Y-9680333D01*
X10921200Y-9677000D01*
X10921200Y-9653667D01*
X10934533Y-9653667D01*
X10891200Y-9683667D02*
X10891200Y-9613667D01*
X10851200Y-9683667D01*
X10851200Y-9613667D01*
X10817867Y-9683667D02*
X10817867Y-9613667D01*
X10801200Y-9613667D01*
X10791200Y-9617000D01*
X10784533Y-9623667D01*
X10781200Y-9630333D01*
X10777867Y-9643667D01*
X10777867Y-9653667D01*
X10781200Y-9667000D01*
X10784533Y-9673667D01*
X10791200Y-9680333D01*
X10801200Y-9683667D01*
X10817867Y-9683667D01*
X10937867Y-10158333D02*
X10937867Y-10191667D01*
X10961200Y-10121667D02*
X10937867Y-10158333D01*
X10914533Y-10121667D01*
X10854533Y-10191667D02*
X10894533Y-10191667D01*
X10874533Y-10191667D02*
X10874533Y-10121667D01*
X10881200Y-10131667D01*
X10887867Y-10138333D01*
X10894533Y-10141667D01*
X10827867Y-10128333D02*
X10824533Y-10125000D01*
X10817867Y-10121667D01*
X10801200Y-10121667D01*
X10794533Y-10125000D01*
X10791200Y-10128333D01*
X10787867Y-10135000D01*
X10787867Y-10141667D01*
X10791200Y-10151667D01*
X10831200Y-10191667D01*
X10787867Y-10191667D01*
X10937867Y-10412333D02*
X10937867Y-10445667D01*
X10961200Y-10375667D02*
X10937867Y-10412333D01*
X10914533Y-10375667D01*
X10854533Y-10445667D02*
X10894533Y-10445667D01*
X10874533Y-10445667D02*
X10874533Y-10375667D01*
X10881200Y-10385667D01*
X10887867Y-10392333D01*
X10894533Y-10395667D01*
X10787867Y-10445667D02*
X10827867Y-10445667D01*
X10807867Y-10445667D02*
X10807867Y-10375667D01*
X10814533Y-10385667D01*
X10821200Y-10392333D01*
X10827867Y-10395667D01*
X8618533Y-10412333D02*
X8618533Y-10445667D01*
X8641867Y-10375667D02*
X8618533Y-10412333D01*
X8595200Y-10375667D01*
X8541867Y-10375667D02*
X8555200Y-10375667D01*
X8561867Y-10379000D01*
X8565200Y-10382333D01*
X8571867Y-10392333D01*
X8575200Y-10405667D01*
X8575200Y-10432333D01*
X8571867Y-10439000D01*
X8568533Y-10442333D01*
X8561867Y-10445667D01*
X8548533Y-10445667D01*
X8541867Y-10442333D01*
X8538533Y-10439000D01*
X8535200Y-10432333D01*
X8535200Y-10415667D01*
X8538533Y-10409000D01*
X8541867Y-10405667D01*
X8548533Y-10402333D01*
X8561867Y-10402333D01*
X8568533Y-10405667D01*
X8571867Y-10409000D01*
X8575200Y-10415667D01*
X8618533Y-10158333D02*
X8618533Y-10191667D01*
X8641867Y-10121667D02*
X8618533Y-10158333D01*
X8595200Y-10121667D01*
X8538533Y-10121667D02*
X8571867Y-10121667D01*
X8575200Y-10155000D01*
X8571867Y-10151667D01*
X8565200Y-10148333D01*
X8548533Y-10148333D01*
X8541867Y-10151667D01*
X8538533Y-10155000D01*
X8535200Y-10161667D01*
X8535200Y-10178333D01*
X8538533Y-10185000D01*
X8541867Y-10188333D01*
X8548533Y-10191667D01*
X8565200Y-10191667D01*
X8571867Y-10188333D01*
X8575200Y-10185000D01*
X8618533Y-9904333D02*
X8618533Y-9937667D01*
X8641867Y-9867667D02*
X8618533Y-9904333D01*
X8595200Y-9867667D01*
X8541867Y-9891000D02*
X8541867Y-9937667D01*
X8558533Y-9864333D02*
X8575200Y-9914333D01*
X8531867Y-9914333D01*
X8618533Y-9650333D02*
X8618533Y-9683667D01*
X8641867Y-9613667D02*
X8618533Y-9650333D01*
X8595200Y-9613667D01*
X8578533Y-9613667D02*
X8535200Y-9613667D01*
X8558533Y-9640333D01*
X8548533Y-9640333D01*
X8541867Y-9643667D01*
X8538533Y-9647000D01*
X8535200Y-9653667D01*
X8535200Y-9670333D01*
X8538533Y-9677000D01*
X8541867Y-9680333D01*
X8548533Y-9683667D01*
X8568533Y-9683667D01*
X8575200Y-9680333D01*
X8578533Y-9677000D01*
X8618533Y-9396333D02*
X8618533Y-9429667D01*
X8641867Y-9359667D02*
X8618533Y-9396333D01*
X8595200Y-9359667D01*
X8575200Y-9366333D02*
X8571867Y-9363000D01*
X8565200Y-9359667D01*
X8548533Y-9359667D01*
X8541867Y-9363000D01*
X8538533Y-9366333D01*
X8535200Y-9373000D01*
X8535200Y-9379667D01*
X8538533Y-9389667D01*
X8578533Y-9429667D01*
X8535200Y-9429667D01*
X8618533Y-9142333D02*
X8618533Y-9175667D01*
X8641867Y-9105667D02*
X8618533Y-9142333D01*
X8595200Y-9105667D01*
X8535200Y-9175667D02*
X8575200Y-9175667D01*
X8555200Y-9175667D02*
X8555200Y-9105667D01*
X8561867Y-9115667D01*
X8568533Y-9122333D01*
X8575200Y-9125667D01*
M02*
