G04 #@! TF.FileFunction,Copper,L1,Top,Signal*
%FSLAX45Y45*%
G04 Gerber Fmt 4.5, Leading zero omitted, Abs format (unit mm)*
G04 Created by KiCad (PCBNEW 4.0.4-stable) date Sat Oct 29 12:27:33 2016*
%MOMM*%
%LPD*%
G01*
G04 APERTURE LIST*
%ADD10C,0.100000*%
%ADD11R,1.750000X1.750000*%
%ADD12C,1.750000*%
%ADD13R,0.600000X1.550000*%
%ADD14R,2.032000X1.727200*%
%ADD15O,2.032000X1.727200*%
%ADD16C,0.600000*%
%ADD17C,0.250000*%
%ADD18C,0.254000*%
G04 APERTURE END LIST*
D10*
D11*
X9842500Y-9207500D03*
D12*
X9592500Y-9207500D03*
D13*
X8953500Y-10176000D03*
X9080500Y-10176000D03*
X9207500Y-10176000D03*
X9334500Y-10176000D03*
X9334500Y-9636000D03*
X9207500Y-9636000D03*
X9080500Y-9636000D03*
X8953500Y-9636000D03*
X10096500Y-10176000D03*
X10223500Y-10176000D03*
X10350500Y-10176000D03*
X10477500Y-10176000D03*
X10477500Y-9636000D03*
X10350500Y-9636000D03*
X10223500Y-9636000D03*
X10096500Y-9636000D03*
D14*
X8318500Y-9144000D03*
D15*
X8318500Y-9398000D03*
X8318500Y-9652000D03*
X8318500Y-9906000D03*
X8318500Y-10160000D03*
X8318500Y-10414000D03*
D14*
X11112500Y-9144000D03*
D15*
X11112500Y-9398000D03*
X11112500Y-9652000D03*
X11112500Y-9906000D03*
X11112500Y-10160000D03*
X11112500Y-10414000D03*
D16*
X8890000Y-9448800D03*
X8585200Y-9499600D03*
X9906000Y-9652000D03*
X10414000Y-10350500D03*
X9207500Y-10033000D03*
X10350500Y-10033000D03*
X9080500Y-9461500D03*
X10223500Y-9461500D03*
X10718800Y-10160000D03*
X9753600Y-9956800D03*
X10858500Y-10287000D03*
X10477500Y-9779000D03*
D17*
X8953500Y-9636000D02*
X8953500Y-9512300D01*
X8953500Y-9512300D02*
X8890000Y-9448800D01*
X10096500Y-9636000D02*
X9922000Y-9636000D01*
X8483600Y-9398000D02*
X8318500Y-9398000D01*
X8585200Y-9499600D02*
X8483600Y-9398000D01*
X9922000Y-9636000D02*
X9906000Y-9652000D01*
X9334500Y-10176000D02*
X9334500Y-9969500D01*
X8636000Y-9652000D02*
X8318500Y-9652000D01*
X8890000Y-9906000D02*
X8636000Y-9652000D01*
X9271000Y-9906000D02*
X8890000Y-9906000D01*
X9334500Y-9969500D02*
X9271000Y-9906000D01*
X8953500Y-10176000D02*
X8842500Y-10176000D01*
X8572500Y-9906000D02*
X8318500Y-9906000D01*
X8842500Y-10176000D02*
X8572500Y-9906000D01*
X10477500Y-10176000D02*
X10477500Y-10287000D01*
X10477500Y-10287000D02*
X10414000Y-10350500D01*
X10096500Y-10176000D02*
X10096500Y-10350500D01*
X10033000Y-10414000D02*
X8318500Y-10414000D01*
X10096500Y-10350500D02*
X10033000Y-10414000D01*
X9207500Y-10176000D02*
X9207500Y-10033000D01*
X10350500Y-10176000D02*
X10350500Y-10033000D01*
X9080500Y-9636000D02*
X9080500Y-9461500D01*
X10223500Y-9636000D02*
X10223500Y-9461500D01*
X10350500Y-9636000D02*
X10350500Y-9461500D01*
X9783000Y-9398000D02*
X9592500Y-9207500D01*
X10287000Y-9398000D02*
X9783000Y-9398000D01*
X10350500Y-9461500D02*
X10287000Y-9398000D01*
X9207500Y-9636000D02*
X9207500Y-9461500D01*
X9461500Y-9207500D02*
X9592500Y-9207500D01*
X9207500Y-9461500D02*
X9461500Y-9207500D01*
X9334500Y-9636000D02*
X9432800Y-9636000D01*
X10718800Y-10160000D02*
X11112500Y-10160000D01*
X9432800Y-9636000D02*
X9753600Y-9956800D01*
X10477500Y-9636000D02*
X10477500Y-9779000D01*
X10985500Y-10414000D02*
X11112500Y-10414000D01*
X10858500Y-10287000D02*
X10985500Y-10414000D01*
D18*
G36*
X9464563Y-9121854D02*
X9460473Y-9131704D01*
X9437241Y-9136325D01*
X9432416Y-9137285D01*
X9407760Y-9153760D01*
X9156366Y-9405154D01*
X9133533Y-9382281D01*
X9099180Y-9368016D01*
X9061983Y-9367984D01*
X9027606Y-9382188D01*
X9001281Y-9408467D01*
X8988332Y-9439652D01*
X8983512Y-9434832D01*
X8983516Y-9430283D01*
X8969312Y-9395906D01*
X8943033Y-9369581D01*
X8908680Y-9355316D01*
X8871483Y-9355284D01*
X8837106Y-9369488D01*
X8810781Y-9395767D01*
X8796516Y-9430120D01*
X8796484Y-9467317D01*
X8810688Y-9501694D01*
X8836967Y-9528019D01*
X8862760Y-9538729D01*
X8858756Y-9558500D01*
X8858756Y-9713500D01*
X8863184Y-9737032D01*
X8877091Y-9758644D01*
X8898311Y-9773143D01*
X8923500Y-9778244D01*
X8983500Y-9778244D01*
X9007032Y-9773816D01*
X9016953Y-9767432D01*
X9025311Y-9773143D01*
X9050500Y-9778244D01*
X9110500Y-9778244D01*
X9134032Y-9773816D01*
X9143953Y-9767432D01*
X9152311Y-9773143D01*
X9177500Y-9778244D01*
X9237500Y-9778244D01*
X9261032Y-9773816D01*
X9270953Y-9767432D01*
X9279311Y-9773143D01*
X9304500Y-9778244D01*
X9364500Y-9778244D01*
X9388032Y-9773816D01*
X9409644Y-9759909D01*
X9424143Y-9738689D01*
X9424794Y-9735474D01*
X9660088Y-9970768D01*
X9660084Y-9975317D01*
X9674288Y-10009694D01*
X9700567Y-10036019D01*
X9734920Y-10050284D01*
X9772117Y-10050316D01*
X9806494Y-10036112D01*
X9832819Y-10009833D01*
X9847084Y-9975480D01*
X9847116Y-9938283D01*
X9832912Y-9903906D01*
X9806633Y-9877581D01*
X9772280Y-9863316D01*
X9767592Y-9863312D01*
X9486540Y-9582260D01*
X9461884Y-9565785D01*
X9432800Y-9560000D01*
X9429244Y-9560000D01*
X9429244Y-9558500D01*
X9424816Y-9534968D01*
X9410909Y-9513356D01*
X9389689Y-9498857D01*
X9364500Y-9493756D01*
X9304500Y-9493756D01*
X9283500Y-9497707D01*
X9283500Y-9492980D01*
X9473977Y-9302503D01*
X9506854Y-9335437D01*
X9562333Y-9358474D01*
X9622404Y-9358526D01*
X9632057Y-9354538D01*
X9729260Y-9451740D01*
X9753916Y-9468215D01*
X9783000Y-9474000D01*
X10129989Y-9474000D01*
X10129984Y-9480017D01*
X10136497Y-9495781D01*
X10126500Y-9493756D01*
X10066500Y-9493756D01*
X10042968Y-9498184D01*
X10021356Y-9512091D01*
X10006857Y-9533311D01*
X10001756Y-9558500D01*
X10001756Y-9560000D01*
X9928253Y-9560000D01*
X9924680Y-9558516D01*
X9887483Y-9558484D01*
X9853106Y-9572688D01*
X9826781Y-9598967D01*
X9812516Y-9633320D01*
X9812484Y-9670517D01*
X9826688Y-9704894D01*
X9852967Y-9731219D01*
X9887320Y-9745484D01*
X9924517Y-9745516D01*
X9958894Y-9731312D01*
X9978240Y-9712000D01*
X10001756Y-9712000D01*
X10001756Y-9713500D01*
X10006184Y-9737032D01*
X10020091Y-9758644D01*
X10041311Y-9773143D01*
X10066500Y-9778244D01*
X10126500Y-9778244D01*
X10150032Y-9773816D01*
X10159953Y-9767432D01*
X10168311Y-9773143D01*
X10193500Y-9778244D01*
X10253500Y-9778244D01*
X10277032Y-9773816D01*
X10286953Y-9767432D01*
X10295311Y-9773143D01*
X10320500Y-9778244D01*
X10380500Y-9778244D01*
X10384001Y-9777585D01*
X10383984Y-9797517D01*
X10398188Y-9831894D01*
X10424467Y-9858219D01*
X10458820Y-9872484D01*
X10496017Y-9872516D01*
X10530394Y-9858312D01*
X10556719Y-9832033D01*
X10570984Y-9797680D01*
X10571016Y-9760483D01*
X10563945Y-9743370D01*
X10567143Y-9738689D01*
X10572244Y-9713500D01*
X10572244Y-9558500D01*
X10567816Y-9534968D01*
X10553909Y-9513356D01*
X10532689Y-9498857D01*
X10507500Y-9493756D01*
X10447500Y-9493756D01*
X10426500Y-9497707D01*
X10426500Y-9461500D01*
X10420715Y-9432416D01*
X10404240Y-9407760D01*
X10340740Y-9344260D01*
X10316084Y-9327785D01*
X10287000Y-9322000D01*
X9988406Y-9322000D01*
X9989643Y-9320189D01*
X9994744Y-9295000D01*
X9994744Y-9120000D01*
X9990316Y-9096468D01*
X9984867Y-9088000D01*
X10946156Y-9088000D01*
X10946156Y-9230360D01*
X10950584Y-9253892D01*
X10964491Y-9275504D01*
X10985711Y-9290003D01*
X10989844Y-9290840D01*
X10988059Y-9292033D01*
X10955573Y-9340651D01*
X10944166Y-9398000D01*
X10955573Y-9455349D01*
X10988059Y-9503967D01*
X11019007Y-9524646D01*
X10977427Y-9561796D01*
X10952029Y-9614521D01*
X10951764Y-9616097D01*
X10963878Y-9639300D01*
X11099800Y-9639300D01*
X11099800Y-9637300D01*
X11125200Y-9637300D01*
X11125200Y-9639300D01*
X11127200Y-9639300D01*
X11127200Y-9664700D01*
X11125200Y-9664700D01*
X11125200Y-9666700D01*
X11099800Y-9666700D01*
X11099800Y-9664700D01*
X10963878Y-9664700D01*
X10951764Y-9687903D01*
X10952029Y-9689479D01*
X10977427Y-9742204D01*
X11019007Y-9779354D01*
X10988059Y-9800033D01*
X10955573Y-9848651D01*
X10944166Y-9906000D01*
X10955573Y-9963349D01*
X10988059Y-10011967D01*
X11019537Y-10033000D01*
X10988059Y-10054033D01*
X10968035Y-10084000D01*
X10775046Y-10084000D01*
X10771833Y-10080781D01*
X10737480Y-10066516D01*
X10700283Y-10066484D01*
X10665906Y-10080688D01*
X10639581Y-10106967D01*
X10625316Y-10141320D01*
X10625284Y-10178517D01*
X10639488Y-10212894D01*
X10665767Y-10239219D01*
X10700120Y-10253484D01*
X10737317Y-10253516D01*
X10771694Y-10239312D01*
X10775012Y-10236000D01*
X10778437Y-10236000D01*
X10765016Y-10268320D01*
X10764984Y-10305517D01*
X10779188Y-10339894D01*
X10805467Y-10366219D01*
X10839820Y-10380484D01*
X10844508Y-10380488D01*
X10931760Y-10467740D01*
X10935142Y-10470000D01*
X10083358Y-10470000D01*
X10086740Y-10467740D01*
X10150240Y-10404240D01*
X10166715Y-10379584D01*
X10172500Y-10350500D01*
X10172500Y-10313533D01*
X10180869Y-10317000D01*
X10194925Y-10317000D01*
X10210800Y-10301125D01*
X10210800Y-10188700D01*
X10208800Y-10188700D01*
X10208800Y-10163300D01*
X10210800Y-10163300D01*
X10210800Y-10050875D01*
X10236200Y-10050875D01*
X10236200Y-10163300D01*
X10238200Y-10163300D01*
X10238200Y-10188700D01*
X10236200Y-10188700D01*
X10236200Y-10301125D01*
X10252075Y-10317000D01*
X10266131Y-10317000D01*
X10287812Y-10308019D01*
X10295311Y-10313143D01*
X10320500Y-10318244D01*
X10326154Y-10318244D01*
X10320516Y-10331820D01*
X10320484Y-10369017D01*
X10334688Y-10403394D01*
X10360967Y-10429719D01*
X10395320Y-10443984D01*
X10432517Y-10444016D01*
X10466894Y-10429812D01*
X10493219Y-10403533D01*
X10507484Y-10369180D01*
X10507488Y-10364492D01*
X10531240Y-10340740D01*
X10547715Y-10316084D01*
X10550681Y-10301172D01*
X10552644Y-10299909D01*
X10567143Y-10278689D01*
X10572244Y-10253500D01*
X10572244Y-10098500D01*
X10567816Y-10074968D01*
X10553909Y-10053356D01*
X10532689Y-10038857D01*
X10507500Y-10033756D01*
X10447500Y-10033756D01*
X10443999Y-10034415D01*
X10444016Y-10014483D01*
X10429812Y-9980106D01*
X10403533Y-9953781D01*
X10369180Y-9939516D01*
X10331983Y-9939484D01*
X10297606Y-9953688D01*
X10271281Y-9979967D01*
X10257016Y-10014320D01*
X10256998Y-10035000D01*
X10252075Y-10035000D01*
X10236200Y-10050875D01*
X10210800Y-10050875D01*
X10194925Y-10035000D01*
X10180869Y-10035000D01*
X10159188Y-10043981D01*
X10151689Y-10038857D01*
X10126500Y-10033756D01*
X10066500Y-10033756D01*
X10042968Y-10038184D01*
X10021356Y-10052091D01*
X10006857Y-10073311D01*
X10001756Y-10098500D01*
X10001756Y-10253500D01*
X10006184Y-10277032D01*
X10020091Y-10298644D01*
X10020500Y-10298924D01*
X10020500Y-10319020D01*
X10001520Y-10338000D01*
X8462965Y-10338000D01*
X8442942Y-10308033D01*
X8411463Y-10287000D01*
X8442942Y-10265967D01*
X8475427Y-10217349D01*
X8486835Y-10160000D01*
X8475427Y-10102651D01*
X8442942Y-10054033D01*
X8411463Y-10033000D01*
X8442942Y-10011967D01*
X8462965Y-9982000D01*
X8541020Y-9982000D01*
X8788760Y-10229740D01*
X8813416Y-10246215D01*
X8842500Y-10252000D01*
X8858756Y-10252000D01*
X8858756Y-10253500D01*
X8863184Y-10277032D01*
X8877091Y-10298644D01*
X8898311Y-10313143D01*
X8923500Y-10318244D01*
X8983500Y-10318244D01*
X9007032Y-10313816D01*
X9016098Y-10307982D01*
X9037869Y-10317000D01*
X9051925Y-10317000D01*
X9067800Y-10301125D01*
X9067800Y-10188700D01*
X9065800Y-10188700D01*
X9065800Y-10163300D01*
X9067800Y-10163300D01*
X9067800Y-10050875D01*
X9051925Y-10035000D01*
X9037869Y-10035000D01*
X9016188Y-10043981D01*
X9008689Y-10038857D01*
X8983500Y-10033756D01*
X8923500Y-10033756D01*
X8899968Y-10038184D01*
X8878356Y-10052091D01*
X8863857Y-10073311D01*
X8861067Y-10087087D01*
X8626240Y-9852260D01*
X8601584Y-9835785D01*
X8572500Y-9830000D01*
X8462965Y-9830000D01*
X8442942Y-9800033D01*
X8411463Y-9779000D01*
X8442942Y-9757967D01*
X8462965Y-9728000D01*
X8604520Y-9728000D01*
X8836260Y-9959740D01*
X8860916Y-9976215D01*
X8865741Y-9977175D01*
X8890000Y-9982000D01*
X9127437Y-9982000D01*
X9114016Y-10014320D01*
X9113998Y-10035000D01*
X9109075Y-10035000D01*
X9093200Y-10050875D01*
X9093200Y-10163300D01*
X9095200Y-10163300D01*
X9095200Y-10188700D01*
X9093200Y-10188700D01*
X9093200Y-10301125D01*
X9109075Y-10317000D01*
X9123131Y-10317000D01*
X9144812Y-10308019D01*
X9152311Y-10313143D01*
X9177500Y-10318244D01*
X9237500Y-10318244D01*
X9261032Y-10313816D01*
X9270953Y-10307432D01*
X9279311Y-10313143D01*
X9304500Y-10318244D01*
X9364500Y-10318244D01*
X9388032Y-10313816D01*
X9409644Y-10299909D01*
X9424143Y-10278689D01*
X9429244Y-10253500D01*
X9429244Y-10098500D01*
X9424816Y-10074968D01*
X9410909Y-10053356D01*
X9410500Y-10053076D01*
X9410500Y-9969500D01*
X9404715Y-9940416D01*
X9388240Y-9915760D01*
X9324740Y-9852260D01*
X9300084Y-9835785D01*
X9271000Y-9830000D01*
X8921480Y-9830000D01*
X8689740Y-9598260D01*
X8665084Y-9581785D01*
X8640179Y-9576831D01*
X8664419Y-9552633D01*
X8678684Y-9518280D01*
X8678716Y-9481083D01*
X8664512Y-9446706D01*
X8638233Y-9420381D01*
X8603880Y-9406116D01*
X8599192Y-9406112D01*
X8537340Y-9344260D01*
X8512684Y-9327785D01*
X8483600Y-9322000D01*
X8462965Y-9322000D01*
X8442942Y-9292033D01*
X8441509Y-9291076D01*
X8443632Y-9290676D01*
X8465244Y-9276769D01*
X8479743Y-9255549D01*
X8484844Y-9230360D01*
X8484844Y-9088000D01*
X9498476Y-9088000D01*
X9464563Y-9121854D01*
X9464563Y-9121854D01*
G37*
X9464563Y-9121854D02*
X9460473Y-9131704D01*
X9437241Y-9136325D01*
X9432416Y-9137285D01*
X9407760Y-9153760D01*
X9156366Y-9405154D01*
X9133533Y-9382281D01*
X9099180Y-9368016D01*
X9061983Y-9367984D01*
X9027606Y-9382188D01*
X9001281Y-9408467D01*
X8988332Y-9439652D01*
X8983512Y-9434832D01*
X8983516Y-9430283D01*
X8969312Y-9395906D01*
X8943033Y-9369581D01*
X8908680Y-9355316D01*
X8871483Y-9355284D01*
X8837106Y-9369488D01*
X8810781Y-9395767D01*
X8796516Y-9430120D01*
X8796484Y-9467317D01*
X8810688Y-9501694D01*
X8836967Y-9528019D01*
X8862760Y-9538729D01*
X8858756Y-9558500D01*
X8858756Y-9713500D01*
X8863184Y-9737032D01*
X8877091Y-9758644D01*
X8898311Y-9773143D01*
X8923500Y-9778244D01*
X8983500Y-9778244D01*
X9007032Y-9773816D01*
X9016953Y-9767432D01*
X9025311Y-9773143D01*
X9050500Y-9778244D01*
X9110500Y-9778244D01*
X9134032Y-9773816D01*
X9143953Y-9767432D01*
X9152311Y-9773143D01*
X9177500Y-9778244D01*
X9237500Y-9778244D01*
X9261032Y-9773816D01*
X9270953Y-9767432D01*
X9279311Y-9773143D01*
X9304500Y-9778244D01*
X9364500Y-9778244D01*
X9388032Y-9773816D01*
X9409644Y-9759909D01*
X9424143Y-9738689D01*
X9424794Y-9735474D01*
X9660088Y-9970768D01*
X9660084Y-9975317D01*
X9674288Y-10009694D01*
X9700567Y-10036019D01*
X9734920Y-10050284D01*
X9772117Y-10050316D01*
X9806494Y-10036112D01*
X9832819Y-10009833D01*
X9847084Y-9975480D01*
X9847116Y-9938283D01*
X9832912Y-9903906D01*
X9806633Y-9877581D01*
X9772280Y-9863316D01*
X9767592Y-9863312D01*
X9486540Y-9582260D01*
X9461884Y-9565785D01*
X9432800Y-9560000D01*
X9429244Y-9560000D01*
X9429244Y-9558500D01*
X9424816Y-9534968D01*
X9410909Y-9513356D01*
X9389689Y-9498857D01*
X9364500Y-9493756D01*
X9304500Y-9493756D01*
X9283500Y-9497707D01*
X9283500Y-9492980D01*
X9473977Y-9302503D01*
X9506854Y-9335437D01*
X9562333Y-9358474D01*
X9622404Y-9358526D01*
X9632057Y-9354538D01*
X9729260Y-9451740D01*
X9753916Y-9468215D01*
X9783000Y-9474000D01*
X10129989Y-9474000D01*
X10129984Y-9480017D01*
X10136497Y-9495781D01*
X10126500Y-9493756D01*
X10066500Y-9493756D01*
X10042968Y-9498184D01*
X10021356Y-9512091D01*
X10006857Y-9533311D01*
X10001756Y-9558500D01*
X10001756Y-9560000D01*
X9928253Y-9560000D01*
X9924680Y-9558516D01*
X9887483Y-9558484D01*
X9853106Y-9572688D01*
X9826781Y-9598967D01*
X9812516Y-9633320D01*
X9812484Y-9670517D01*
X9826688Y-9704894D01*
X9852967Y-9731219D01*
X9887320Y-9745484D01*
X9924517Y-9745516D01*
X9958894Y-9731312D01*
X9978240Y-9712000D01*
X10001756Y-9712000D01*
X10001756Y-9713500D01*
X10006184Y-9737032D01*
X10020091Y-9758644D01*
X10041311Y-9773143D01*
X10066500Y-9778244D01*
X10126500Y-9778244D01*
X10150032Y-9773816D01*
X10159953Y-9767432D01*
X10168311Y-9773143D01*
X10193500Y-9778244D01*
X10253500Y-9778244D01*
X10277032Y-9773816D01*
X10286953Y-9767432D01*
X10295311Y-9773143D01*
X10320500Y-9778244D01*
X10380500Y-9778244D01*
X10384001Y-9777585D01*
X10383984Y-9797517D01*
X10398188Y-9831894D01*
X10424467Y-9858219D01*
X10458820Y-9872484D01*
X10496017Y-9872516D01*
X10530394Y-9858312D01*
X10556719Y-9832033D01*
X10570984Y-9797680D01*
X10571016Y-9760483D01*
X10563945Y-9743370D01*
X10567143Y-9738689D01*
X10572244Y-9713500D01*
X10572244Y-9558500D01*
X10567816Y-9534968D01*
X10553909Y-9513356D01*
X10532689Y-9498857D01*
X10507500Y-9493756D01*
X10447500Y-9493756D01*
X10426500Y-9497707D01*
X10426500Y-9461500D01*
X10420715Y-9432416D01*
X10404240Y-9407760D01*
X10340740Y-9344260D01*
X10316084Y-9327785D01*
X10287000Y-9322000D01*
X9988406Y-9322000D01*
X9989643Y-9320189D01*
X9994744Y-9295000D01*
X9994744Y-9120000D01*
X9990316Y-9096468D01*
X9984867Y-9088000D01*
X10946156Y-9088000D01*
X10946156Y-9230360D01*
X10950584Y-9253892D01*
X10964491Y-9275504D01*
X10985711Y-9290003D01*
X10989844Y-9290840D01*
X10988059Y-9292033D01*
X10955573Y-9340651D01*
X10944166Y-9398000D01*
X10955573Y-9455349D01*
X10988059Y-9503967D01*
X11019007Y-9524646D01*
X10977427Y-9561796D01*
X10952029Y-9614521D01*
X10951764Y-9616097D01*
X10963878Y-9639300D01*
X11099800Y-9639300D01*
X11099800Y-9637300D01*
X11125200Y-9637300D01*
X11125200Y-9639300D01*
X11127200Y-9639300D01*
X11127200Y-9664700D01*
X11125200Y-9664700D01*
X11125200Y-9666700D01*
X11099800Y-9666700D01*
X11099800Y-9664700D01*
X10963878Y-9664700D01*
X10951764Y-9687903D01*
X10952029Y-9689479D01*
X10977427Y-9742204D01*
X11019007Y-9779354D01*
X10988059Y-9800033D01*
X10955573Y-9848651D01*
X10944166Y-9906000D01*
X10955573Y-9963349D01*
X10988059Y-10011967D01*
X11019537Y-10033000D01*
X10988059Y-10054033D01*
X10968035Y-10084000D01*
X10775046Y-10084000D01*
X10771833Y-10080781D01*
X10737480Y-10066516D01*
X10700283Y-10066484D01*
X10665906Y-10080688D01*
X10639581Y-10106967D01*
X10625316Y-10141320D01*
X10625284Y-10178517D01*
X10639488Y-10212894D01*
X10665767Y-10239219D01*
X10700120Y-10253484D01*
X10737317Y-10253516D01*
X10771694Y-10239312D01*
X10775012Y-10236000D01*
X10778437Y-10236000D01*
X10765016Y-10268320D01*
X10764984Y-10305517D01*
X10779188Y-10339894D01*
X10805467Y-10366219D01*
X10839820Y-10380484D01*
X10844508Y-10380488D01*
X10931760Y-10467740D01*
X10935142Y-10470000D01*
X10083358Y-10470000D01*
X10086740Y-10467740D01*
X10150240Y-10404240D01*
X10166715Y-10379584D01*
X10172500Y-10350500D01*
X10172500Y-10313533D01*
X10180869Y-10317000D01*
X10194925Y-10317000D01*
X10210800Y-10301125D01*
X10210800Y-10188700D01*
X10208800Y-10188700D01*
X10208800Y-10163300D01*
X10210800Y-10163300D01*
X10210800Y-10050875D01*
X10236200Y-10050875D01*
X10236200Y-10163300D01*
X10238200Y-10163300D01*
X10238200Y-10188700D01*
X10236200Y-10188700D01*
X10236200Y-10301125D01*
X10252075Y-10317000D01*
X10266131Y-10317000D01*
X10287812Y-10308019D01*
X10295311Y-10313143D01*
X10320500Y-10318244D01*
X10326154Y-10318244D01*
X10320516Y-10331820D01*
X10320484Y-10369017D01*
X10334688Y-10403394D01*
X10360967Y-10429719D01*
X10395320Y-10443984D01*
X10432517Y-10444016D01*
X10466894Y-10429812D01*
X10493219Y-10403533D01*
X10507484Y-10369180D01*
X10507488Y-10364492D01*
X10531240Y-10340740D01*
X10547715Y-10316084D01*
X10550681Y-10301172D01*
X10552644Y-10299909D01*
X10567143Y-10278689D01*
X10572244Y-10253500D01*
X10572244Y-10098500D01*
X10567816Y-10074968D01*
X10553909Y-10053356D01*
X10532689Y-10038857D01*
X10507500Y-10033756D01*
X10447500Y-10033756D01*
X10443999Y-10034415D01*
X10444016Y-10014483D01*
X10429812Y-9980106D01*
X10403533Y-9953781D01*
X10369180Y-9939516D01*
X10331983Y-9939484D01*
X10297606Y-9953688D01*
X10271281Y-9979967D01*
X10257016Y-10014320D01*
X10256998Y-10035000D01*
X10252075Y-10035000D01*
X10236200Y-10050875D01*
X10210800Y-10050875D01*
X10194925Y-10035000D01*
X10180869Y-10035000D01*
X10159188Y-10043981D01*
X10151689Y-10038857D01*
X10126500Y-10033756D01*
X10066500Y-10033756D01*
X10042968Y-10038184D01*
X10021356Y-10052091D01*
X10006857Y-10073311D01*
X10001756Y-10098500D01*
X10001756Y-10253500D01*
X10006184Y-10277032D01*
X10020091Y-10298644D01*
X10020500Y-10298924D01*
X10020500Y-10319020D01*
X10001520Y-10338000D01*
X8462965Y-10338000D01*
X8442942Y-10308033D01*
X8411463Y-10287000D01*
X8442942Y-10265967D01*
X8475427Y-10217349D01*
X8486835Y-10160000D01*
X8475427Y-10102651D01*
X8442942Y-10054033D01*
X8411463Y-10033000D01*
X8442942Y-10011967D01*
X8462965Y-9982000D01*
X8541020Y-9982000D01*
X8788760Y-10229740D01*
X8813416Y-10246215D01*
X8842500Y-10252000D01*
X8858756Y-10252000D01*
X8858756Y-10253500D01*
X8863184Y-10277032D01*
X8877091Y-10298644D01*
X8898311Y-10313143D01*
X8923500Y-10318244D01*
X8983500Y-10318244D01*
X9007032Y-10313816D01*
X9016098Y-10307982D01*
X9037869Y-10317000D01*
X9051925Y-10317000D01*
X9067800Y-10301125D01*
X9067800Y-10188700D01*
X9065800Y-10188700D01*
X9065800Y-10163300D01*
X9067800Y-10163300D01*
X9067800Y-10050875D01*
X9051925Y-10035000D01*
X9037869Y-10035000D01*
X9016188Y-10043981D01*
X9008689Y-10038857D01*
X8983500Y-10033756D01*
X8923500Y-10033756D01*
X8899968Y-10038184D01*
X8878356Y-10052091D01*
X8863857Y-10073311D01*
X8861067Y-10087087D01*
X8626240Y-9852260D01*
X8601584Y-9835785D01*
X8572500Y-9830000D01*
X8462965Y-9830000D01*
X8442942Y-9800033D01*
X8411463Y-9779000D01*
X8442942Y-9757967D01*
X8462965Y-9728000D01*
X8604520Y-9728000D01*
X8836260Y-9959740D01*
X8860916Y-9976215D01*
X8865741Y-9977175D01*
X8890000Y-9982000D01*
X9127437Y-9982000D01*
X9114016Y-10014320D01*
X9113998Y-10035000D01*
X9109075Y-10035000D01*
X9093200Y-10050875D01*
X9093200Y-10163300D01*
X9095200Y-10163300D01*
X9095200Y-10188700D01*
X9093200Y-10188700D01*
X9093200Y-10301125D01*
X9109075Y-10317000D01*
X9123131Y-10317000D01*
X9144812Y-10308019D01*
X9152311Y-10313143D01*
X9177500Y-10318244D01*
X9237500Y-10318244D01*
X9261032Y-10313816D01*
X9270953Y-10307432D01*
X9279311Y-10313143D01*
X9304500Y-10318244D01*
X9364500Y-10318244D01*
X9388032Y-10313816D01*
X9409644Y-10299909D01*
X9424143Y-10278689D01*
X9429244Y-10253500D01*
X9429244Y-10098500D01*
X9424816Y-10074968D01*
X9410909Y-10053356D01*
X9410500Y-10053076D01*
X9410500Y-9969500D01*
X9404715Y-9940416D01*
X9388240Y-9915760D01*
X9324740Y-9852260D01*
X9300084Y-9835785D01*
X9271000Y-9830000D01*
X8921480Y-9830000D01*
X8689740Y-9598260D01*
X8665084Y-9581785D01*
X8640179Y-9576831D01*
X8664419Y-9552633D01*
X8678684Y-9518280D01*
X8678716Y-9481083D01*
X8664512Y-9446706D01*
X8638233Y-9420381D01*
X8603880Y-9406116D01*
X8599192Y-9406112D01*
X8537340Y-9344260D01*
X8512684Y-9327785D01*
X8483600Y-9322000D01*
X8462965Y-9322000D01*
X8442942Y-9292033D01*
X8441509Y-9291076D01*
X8443632Y-9290676D01*
X8465244Y-9276769D01*
X8479743Y-9255549D01*
X8484844Y-9230360D01*
X8484844Y-9088000D01*
X9498476Y-9088000D01*
X9464563Y-9121854D01*
M02*
