G04 #@! TF.FileFunction,Legend,Top*
%FSLAX45Y45*%
G04 Gerber Fmt 4.5, Leading zero omitted, Abs format (unit mm)*
G04 Created by KiCad (PCBNEW 4.0.4-stable) date Sat Oct 29 12:27:33 2016*
%MOMM*%
%LPD*%
G01*
G04 APERTURE LIST*
%ADD10C,0.100000*%
%ADD11C,0.150000*%
G04 APERTURE END LIST*
D10*
D11*
X9717500Y-8272500D02*
X10102500Y-8272500D01*
X10102500Y-8272500D02*
X10102500Y-9452500D01*
X10102500Y-9452500D02*
X9982500Y-9452500D01*
X9982500Y-9452500D02*
X9982500Y-9002500D01*
X9982500Y-9002500D02*
X9717500Y-9002500D01*
X9717500Y-8272500D02*
X9332500Y-8272500D01*
X9332500Y-8272500D02*
X9332500Y-9452500D01*
X9332500Y-9452500D02*
X9452500Y-9452500D01*
X9452500Y-9452500D02*
X9452500Y-9002500D01*
X9452500Y-9002500D02*
X9717500Y-9002500D01*
X9867500Y-8937500D02*
X9867500Y-8337500D01*
X9867500Y-8337500D02*
X9817500Y-8337500D01*
X9817500Y-8337500D02*
X9817500Y-8937500D01*
X9817500Y-8937500D02*
X9867500Y-8937500D01*
X9617500Y-8937500D02*
X9617500Y-8337500D01*
X9617500Y-8337500D02*
X9567500Y-8337500D01*
X9567500Y-8337500D02*
X9567500Y-8937500D01*
X9567500Y-8937500D02*
X9617500Y-8937500D01*
X9842500Y-9357500D02*
X9872500Y-9417500D01*
X9872500Y-9417500D02*
X9812500Y-9417500D01*
X9812500Y-9417500D02*
X9842500Y-9357500D01*
X8886500Y-10113500D02*
X8891500Y-10113500D01*
X8886500Y-9698500D02*
X8901000Y-9698500D01*
X9401500Y-9698500D02*
X9387000Y-9698500D01*
X9401500Y-10113500D02*
X9387000Y-10113500D01*
X8886500Y-10113500D02*
X8886500Y-9698500D01*
X9401500Y-10113500D02*
X9401500Y-9698500D01*
X8891500Y-10113500D02*
X8891500Y-10253500D01*
X10029500Y-10113500D02*
X10034500Y-10113500D01*
X10029500Y-9698500D02*
X10044000Y-9698500D01*
X10544500Y-9698500D02*
X10530000Y-9698500D01*
X10544500Y-10113500D02*
X10530000Y-10113500D01*
X10029500Y-10113500D02*
X10029500Y-9698500D01*
X10544500Y-10113500D02*
X10544500Y-9698500D01*
X10034500Y-10113500D02*
X10034500Y-10253500D01*
X8445500Y-9271000D02*
X8445500Y-10541000D01*
X8445500Y-10541000D02*
X8191500Y-10541000D01*
X8191500Y-10541000D02*
X8191500Y-9271000D01*
X8473500Y-8989000D02*
X8473500Y-9144000D01*
X8445500Y-9271000D02*
X8191500Y-9271000D01*
X8163500Y-9144000D02*
X8163500Y-8989000D01*
X8163500Y-8989000D02*
X8473500Y-8989000D01*
X11239500Y-9271000D02*
X11239500Y-10541000D01*
X11239500Y-10541000D02*
X10985500Y-10541000D01*
X10985500Y-10541000D02*
X10985500Y-9271000D01*
X11267500Y-8989000D02*
X11267500Y-9144000D01*
X11239500Y-9271000D02*
X10985500Y-9271000D01*
X10957500Y-9144000D02*
X10957500Y-8989000D01*
X10957500Y-8989000D02*
X11267500Y-8989000D01*
X9643691Y-9602738D02*
X9643691Y-9502738D01*
X9681786Y-9502738D01*
X9691310Y-9507500D01*
X9696072Y-9512262D01*
X9700833Y-9521786D01*
X9700833Y-9536071D01*
X9696072Y-9545595D01*
X9691310Y-9550357D01*
X9681786Y-9555119D01*
X9643691Y-9555119D01*
X9738929Y-9512262D02*
X9743691Y-9507500D01*
X9753214Y-9502738D01*
X9777024Y-9502738D01*
X9786548Y-9507500D01*
X9791310Y-9512262D01*
X9796072Y-9521786D01*
X9796072Y-9531310D01*
X9791310Y-9545595D01*
X9734167Y-9602738D01*
X9796072Y-9602738D01*
X8739238Y-9982191D02*
X8820191Y-9982191D01*
X8829714Y-9977429D01*
X8834476Y-9972667D01*
X8839238Y-9963143D01*
X8839238Y-9944095D01*
X8834476Y-9934571D01*
X8829714Y-9929810D01*
X8820191Y-9925048D01*
X8739238Y-9925048D01*
X8839238Y-9825048D02*
X8839238Y-9882191D01*
X8839238Y-9853619D02*
X8739238Y-9853619D01*
X8753524Y-9863143D01*
X8763048Y-9872667D01*
X8767810Y-9882191D01*
X9882238Y-9982191D02*
X9963191Y-9982191D01*
X9972714Y-9977429D01*
X9977476Y-9972667D01*
X9982238Y-9963143D01*
X9982238Y-9944095D01*
X9977476Y-9934571D01*
X9972714Y-9929810D01*
X9963191Y-9925048D01*
X9882238Y-9925048D01*
X9891762Y-9882191D02*
X9887000Y-9877429D01*
X9882238Y-9867905D01*
X9882238Y-9844095D01*
X9887000Y-9834571D01*
X9891762Y-9829810D01*
X9901286Y-9825048D01*
X9910810Y-9825048D01*
X9925095Y-9829810D01*
X9982238Y-9886952D01*
X9982238Y-9825048D01*
X8562191Y-9240038D02*
X8562191Y-9140038D01*
X8600286Y-9140038D01*
X8609810Y-9144800D01*
X8614572Y-9149562D01*
X8619333Y-9159086D01*
X8619333Y-9173371D01*
X8614572Y-9182895D01*
X8609810Y-9187657D01*
X8600286Y-9192419D01*
X8562191Y-9192419D01*
X8714572Y-9240038D02*
X8657429Y-9240038D01*
X8686000Y-9240038D02*
X8686000Y-9140038D01*
X8676476Y-9154324D01*
X8666952Y-9163848D01*
X8657429Y-9168610D01*
X10695791Y-9240038D02*
X10695791Y-9140038D01*
X10733886Y-9140038D01*
X10743410Y-9144800D01*
X10748172Y-9149562D01*
X10752933Y-9159086D01*
X10752933Y-9173371D01*
X10748172Y-9182895D01*
X10743410Y-9187657D01*
X10733886Y-9192419D01*
X10695791Y-9192419D01*
X10786267Y-9140038D02*
X10848172Y-9140038D01*
X10814838Y-9178133D01*
X10829124Y-9178133D01*
X10838648Y-9182895D01*
X10843410Y-9187657D01*
X10848172Y-9197181D01*
X10848172Y-9220991D01*
X10843410Y-9230514D01*
X10838648Y-9235276D01*
X10829124Y-9240038D01*
X10800552Y-9240038D01*
X10791029Y-9235276D01*
X10786267Y-9230514D01*
M02*
